<svg xmlns="http://www.w3.org/2000/svg" fill="none" viewBox="0 0 1440 2723">
  <g fill="#FFFAF3" filter="url(#a)">
    <path d="M1390.84 981.794c-15.07 17.606-4.01 35.416-4.54 63.936-.6 41.48 20.67 53.54 36.96 42.54 16.05-10.4 12.28-36.42 26.7-50.85 13.53-15.45 38.92-13.46 48.15-31.21 8.98-17.143-4.19-37.796-45.07-33.952-27.33 2.76-46-7.646-62.2 9.536Zm-47.24 27.816c21.28 1.81 36.55 15.05 34.92 28.8-1.62 13.75-20.99 23.6-42.03 21.2-21.27-1.81-36.78-14.45-34.92-28.8 1.87-14.35 20.76-23.01 42.03-21.2Zm75.51-81.562c2.59 21.138 15.63 35.059 28.88 31.673 13.25-3.386 21.39-23.288 18.01-44.026-2.59-21.137-15.63-35.058-28.88-31.672-13.25 3.386-21.39 23.288-18.01 44.025Zm-70.46 13.89c18.66 12.003 27.15 32.397 18.96 45.831-8.19 13.431-30.77 14.311-49.42 2.306-18.66-12.003-27.15-32.396-18.96-45.83 8.19-13.434 30.77-14.31 49.42-2.307Zm1.26-6.386c12.53 17.596 31.54 24.031 42.98 14.728 11.44-9.302 10.64-30.662-1.9-48.258-12.53-17.596-31.54-24.03-42.98-14.728-11.44 9.303-10.63 30.662 1.9 48.258Z"/>
  </g>
  <g fill="#FFFAF3" filter="url(#b)">
    <path d="M4.82 2585.07c18.945-13.34 35.637-.66 64.075 1.49 41.352 3.32 51.359 25.62 38.88 40.81-11.866 14.99-37.417 8.8-53.139 21.79-16.652 12.02-17.067 37.48-35.597 45-17.918 7.32-37.239-7.73-29.566-48.06 5.32-26.96-3.283-46.52 15.347-61.03Zm32.14-44.41c-.202 21.35 11.538 37.8 25.384 37.47 13.845-.32 25.47-18.68 25.06-39.85.202-21.35-10.926-37.98-25.384-37.47-14.459.51-24.858 18.5-25.06 39.85Zm-67.85-1.34c10.195 19.7 29.7 30.07 43.844 23.18 14.145-6.89 17.142-29.28 6.947-48.98-10.194-19.7-29.698-30.07-43.843-23.19-14.145 6.89-17.141 29.29-6.947 48.99Z"/>
  </g>
  <path fill="#FFFAF3" d="M331.774 1544.24c-227.47-31.43-442.662 6.1-521.784 29L-213 2011.19c166.238-26.75 631.507-44.76 1172.514 11 559.816 57.7 415.856-33 735.696-62.99 18.16-75.29 196.08-287.63-46.98-385.96-243.06-98.32-120.5-30.68-400.84-29-210.37 13.1-688.146 31.44-915.616 0Z"/>
  <path fill="#839AA9" d="M383.055 1489c-.079-2.99-3.008-5.96-8.877-8 .401-.82 0-1.09 0-2 0-3.53-3.072-7-6.904-7-.864 0-1.167.71-1.973 1-1.29-1.45-3.652-2-5.917-2-1.027 0-2.032-.35-2.959 0-1.614-1.34-3.622-2-5.918-2-3.095 0-6.352 1.81-7.891 4-3.638-.4-6.648.39-7.89 3-3.051.05-5.535 2.3-5.918 5-6.359 2.07-9.78 4.88-9.863 8L315 1504v1c0 6.97 16.306 12 36.493 12S387 1511.97 387 1505l-3.945-16Zm-48.329-11c-.052 0 .052 0 0 0h.986v-1c.781-2.07 3.092-3 5.918-3 .398 0 .574-.06.986 0h.987c1.247-2.02 4.081-4 6.904-4 2.132 0 3.529.71 4.931 2l.987 1v-1c.867-.38 1.962 0 2.959 0 2.067 0 3.925.64 4.931 2h.986c.78-.34 1.121 0 1.973 0 3.135 0 5.918 2.17 5.918 5 0 .93-.463 1.21-.987 2-.001 0 .002 1 0 1-.04.06.042-.06 0 0v1h.987c2.476.34 3.945 1.69 3.945 3 0 .79-.475.65-.986 1-.082.06.072-.04 0 0l-1.973 1 1.973 1c1.112.52.986 1.11.986 2 0 1.32-2.516 3-4.932 3-1.101.38-1.794.69-2.958 1-4.946 1.3-10.813 2-16.768 2-10.185 0-18.726-2.25-21.698-3-.685-.17-.968.01-.986 0-2.707 0-4.932-2.57-4.932-5s2.225-4 4.932-4c-.164-.02.169 0 0 0h.986v-1c-.318-.58-.986-1.36-.986-2-.003.04 0-.04 0 0 .252-2.16 2.425-4 4.931-4Zm-5.918 5c-.004-.03.003.03 0 0-.006-.04.006.04 0 0 .037.22-.066-.22 0 0 .001 0-.001 0 0 0-3.215.19-5.918 2.99-5.918 6 0 3.1 3.542 5.96 6.905 6 .153.04.456-.13.986 0 3.038.77 11.384 3 21.698 3-.001 0 .002 0 0 0 7.45 0 13.836-1 19.726-3 2.917-.04 6.905-1.74 6.905-4 0-.28.072-.74 0-1-.215-.79-1.199-1.44-1.973-2 .768-.69.986-1.13.986-2 0-.06.005-.94 0-1-.003-.05.007.05 0 0-.008-.06.012.06 0 0-.011-.06.015.06 0 0-.003-.01.004.01 0 0 2.37 1.42 3.945 2.43 3.945 4 0 4.77-13.081 10-31.561 10-18.481 0-30.575-5.23-30.575-10 0-2.47 3.336-4.14 8.876-6Zm21.699 33c-18.748 0-34.386-4.99-34.521-11l3.946-13c3.032 5.09 14.873 9 30.575 9 15.7 0 28.53-3.91 31.561-9l3.946 13c-.135 6.02-16.76 11-35.507 11Z"/>
  <path fill="#839AA9" d="M361.356 1505c0-1.69-1.32-3-2.959-3-1.585 0-2.881 1.38-2.959 3h-9.863c-.078-1.62-1.372-3-2.959-3-1.637 0-2.958 1.31-2.958 3 0 .99.283 1.44.986 2-.703.56-.986 2.01-.986 3 0 1.69 1.321 3 2.958 3 1.587 0 2.882-1.38 2.959-3h9.863c.079 1.62 1.374 3 2.959 3 1.639 0 2.959-1.31 2.959-3 0-.99-.285-2.44-.986-3 .701-.56.986-1.01.986-2Zm-.986 5c0 .99-1.018 2-1.973 2-.952 0-1.972-1.01-1.972-2-.024.12 0-.12 0 0v-1h-11.836v1c0-.12.023.12 0 0 0 .99-1.018 2-1.973 2-.953 0-1.972-1.01-1.972-2s1.019-2 1.972-2v-1c-.953 0-1.972-1.01-1.972-2s1.019-2 1.972-2c.955 0 1.973 1.01 1.973 2 0 .12.023-.12 0 0v1h11.836v-1c-.024-.12 0 .12 0 0 0-.99 1.02-2 1.972-2 .955 0 1.973 1.01 1.973 2s-1.018 2-1.973 2v1c.955 0 1.973 1.01 1.973 2Z"/>
  <g clip-path="url(#c)">
    <path fill="#FA0" d="M1228.75 1627.6c6.25-41.03 39.57-74.12 74.3-74.07.2 1.05 1.14 2.02.81 3.04-5.6 17.26 2.24 30.79 14.33 42.66 9.31 9.37 19.76 17.01 32.61 20.9 3.68 1 6.81 2.41 10.8 2.65 14.63 1.15 22.98-7.24 22.25-21.52-.48-9.61-5.49-17.23-11.45-24.58-10.17-12.79-23.46-22.61-39.08-29.25-3.13-1.23-6.25-2.81-10.68-4.64 15.16-16.41 35.8-19.89 55.44-26.46-3.46-.21-6.44-.91-9.93-.6-18.07 2.77-35.56 8.76-49.12 20.87-3.95 3.39-7.42 5.52-13.27 5.16-22.64-1.12-41.29 7.04-57.18 22.38-11.92 11.43-21.1 24.96-27.37 40.11-1.57 3.79-3.04 7.53-5.81 13.57-7.29-11.83-13.65-21.84-19.97-32.06-.81.21-1.23.66-2.05.87-.39 2.05-2.1 5.03-1.41 6.88 3.19 8.99 6.6 17.73 10.34 26.5 3.52 7.98 7.99 15.61 11.51 23.59 3.54 7.72 7.29 9.64 12.73 3.76 9.43-10.04 18.14-20.34 26.82-31.19 1.16-1.49.55-4.61.43-6.94-2.7.35-6.38.04-8.07 1.49-5.93 5.34-10.71 10.53-16.98 16.88Zm85.28-74.39c25.81 5.98 45.55 19.07 57.21 42.3 2.37 5.06 4.12 11.29-.9 14.87-3.35 2.38-9.59 2.92-14.09 2.12-17.14-3.63-29.78-14.01-40.19-27.33-7.16-9.49-9.47-19.47-2.03-31.96Z"/>
  </g>
  <g fill="#FFFAF3" filter="url(#d)">
    <path d="M1172.19 1428.16c7.01 8.18 2.28 16.4 2.52 29.65.27 19.28-9.78 25.32-17.36 20.21-7.47-4.83-6.18-16.95-12.88-23.66-6.29-7.18-17.84-6.68-22.13-14.92-4.18-7.97 2.43-17.2 21.46-15.42 12.72 1.28 20.86-3.84 28.39 4.14Zm21.97 13.11c-9.78.82-16.66 6.99-15.9 13.34.76 6.35 10.21 10.53 19.88 9.44 9.78-.82 16.77-6.71 15.9-13.34-.87-6.62-10.09-10.25-19.88-9.44Zm-34.99-37.45c-1.24 9.76-7.15 16.01-13.3 14.47-6.16-1.54-10.22-11.47-8.61-21.04 1.24-9.76 7.14-16.02 13.3-14.47 6.15 1.54 10.21 11.46 8.61 21.04Zm33.64 7.06c-8.75 5.57-13.53 14.39-9.76 20.53 3.77 6.14 14.07 6.52 22.82.95 8.74-5.57 13.52-14.39 9.75-20.53-3.77-6.13-14.07-6.52-22.81-.95Zm-1.29-4.1c-5.8 8.23-14.49 10.75-19.83 6.37-5.33-4.38-4.39-14.45 1.41-22.68 5.79-8.22 14.48-10.74 19.82-6.36 5.34 4.37 4.39 14.45-1.4 22.67Z"/>
  </g>
  <g fill="#FFFAF3" filter="url(#e)">
    <path d="M125.865 2087.82c5.201 6.07 1.693 12.17 1.87 22.01.197 14.31-7.261 18.79-12.887 15-5.542-3.59-4.585-12.59-9.563-17.56-4.67-5.33-13.241-4.96-16.424-11.08-3.1-5.92 1.807-12.76 15.929-11.44 9.442.94 15.482-2.85 21.075 3.07Zm16.307 9.73c-7.262.61-12.368 5.19-11.805 9.9.564 4.72 7.578 7.82 14.757 7.01 7.263-.61 12.451-4.98 11.805-9.9-.647-4.92-7.495-7.61-14.757-7.01Zm-25.976-27.8c-.921 7.25-5.304 11.89-9.873 10.74-4.569-1.14-7.583-8.51-6.39-15.61.921-7.25 5.305-11.89 9.874-10.75 4.569 1.15 7.582 8.51 6.389 15.62Zm24.969 5.24c-6.491 4.14-10.04 10.69-7.241 15.24 2.798 4.56 10.445 4.85 16.936.71 6.492-4.13 10.041-10.68 7.242-15.24-2.799-4.55-10.445-4.84-16.937-.71Zm-.956-3.04c-4.302 6.11-10.753 7.98-14.715 4.73-3.961-3.25-3.261-10.73 1.041-16.83 4.302-6.11 10.753-7.98 14.714-4.73 3.962 3.25 3.262 10.73-1.04 16.83Z"/>
  </g>
  <g fill="#FFFAF3" filter="url(#f)">
    <path d="M292.194 792.162c7.006 8.18 2.28 16.393 2.519 29.649.264 19.282-9.783 25.318-17.362 20.211-7.467-4.831-6.177-16.956-12.884-23.66-6.292-7.178-17.839-6.682-22.127-14.927-4.175-7.969 2.435-17.192 21.46-15.416 12.721 1.276 20.858-3.84 28.394 4.143Zm21.968 13.112c-9.784.818-16.662 6.984-15.903 13.336.759 6.352 10.209 10.53 19.881 9.438 9.784-.818 16.774-6.71 15.903-13.336-.871-6.626-10.097-10.256-19.881-9.438Zm-34.995-37.456c-1.24 9.759-7.146 16.015-13.302 14.472-6.155-1.542-10.215-11.465-8.608-21.041 1.241-9.759 7.147-16.014 13.302-14.472 6.155 1.542 10.215 11.465 8.608 21.041Zm33.639 7.062c-8.746 5.571-13.527 14.393-9.756 20.53 3.77 6.137 14.072 6.525 22.817.954 8.746-5.57 13.527-14.392 9.756-20.529-3.77-6.137-14.072-6.525-22.817-.955Zm-1.289-4.095c-5.795 8.225-14.486 10.741-19.823 6.364s-4.394-14.452 1.402-22.677c5.795-8.225 14.486-10.741 19.823-6.364s4.394 14.452-1.402 22.677Z"/>
  </g>
  <g fill="#FFFAF3" filter="url(#g)">
    <path d="M18.77 1032.94c7.007 8.18 2.281 16.39 2.52 29.65.264 19.28-9.783 25.32-17.362 20.21-7.467-4.83-6.177-16.96-12.884-23.66-6.292-7.18-17.839-6.68-22.127-14.93-4.175-7.97 2.435-17.19 21.46-15.41 12.721 1.27 20.858-3.84 28.394 4.14Zm21.969 13.11c-9.784.82-16.662 6.99-15.903 13.34.759 6.35 10.209 10.53 19.88 9.43 9.784-.81 16.775-6.71 15.904-13.33-.871-6.63-10.097-10.26-19.881-9.44Zm-34.995-37.46c-1.24 9.76-7.146 16.02-13.302 14.48-6.155-1.55-10.215-11.47-8.608-21.04 1.24-9.763 7.147-16.019 13.302-14.476 6.155 1.542 10.215 11.465 8.608 21.036Zm33.639 7.07c-8.746 5.57-13.527 14.39-9.756 20.53 3.77 6.13 14.072 6.52 22.817.95 8.746-5.57 13.527-14.39 9.756-20.53-3.77-6.14-14.072-6.52-22.817-.95Zm-1.289-4.1c-5.796 8.23-14.486 10.74-19.823 6.37-5.337-4.38-4.394-14.46 1.401-22.682 5.796-8.224 14.487-10.741 19.824-6.364 5.337 4.377 4.394 14.456-1.402 22.676Z"/>
  </g>
  <g fill="#FFFAF3" filter="url(#h)">
    <path d="M1372.81 2128.16c-7.01 8.18-2.28 16.4-2.52 29.65-.27 19.28 9.78 25.32 17.36 20.21 7.47-4.83 6.18-16.95 12.88-23.66 6.29-7.18 17.84-6.68 22.13-14.92 4.18-7.97-2.43-17.2-21.46-15.42-12.72 1.28-20.86-3.84-28.39 4.14Zm-21.97 13.11c9.78.82 16.66 6.99 15.9 13.34-.76 6.35-10.21 10.53-19.88 9.44-9.78-.82-16.77-6.71-15.9-13.34.87-6.62 10.09-10.25 19.88-9.44Zm34.99-37.45c1.24 9.76 7.15 16.01 13.3 14.47 6.16-1.54 10.22-11.47 8.61-21.04-1.24-9.76-7.14-16.02-13.3-14.47-6.15 1.54-10.21 11.46-8.61 21.04Zm-33.64 7.06c8.75 5.57 13.53 14.39 9.76 20.53-3.77 6.14-14.07 6.52-22.82.95-8.74-5.57-13.52-14.39-9.75-20.52 3.77-6.14 14.07-6.53 22.81-.96Zm1.29-4.09c5.8 8.22 14.49 10.74 19.83 6.36 5.33-4.38 4.39-14.45-1.41-22.68-5.79-8.22-14.48-10.74-19.82-6.36-5.34 4.37-4.39 14.45 1.4 22.68Z"/>
  </g>
  <g fill="#FFFAF3" filter="url(#i)">
    <path d="M876.194 64.162c7.006 8.18 2.28 16.393 2.519 29.649.264 19.282-9.783 25.318-17.362 20.211-7.467-4.831-6.177-16.956-12.884-23.66-6.292-7.178-17.839-6.682-22.127-14.927-4.175-7.97 2.435-17.192 21.46-15.416 12.721 1.276 20.858-3.84 28.394 4.143Zm21.968 13.112c-9.784.818-16.662 6.984-15.903 13.336.759 6.352 10.209 10.53 19.881 9.438 9.784-.818 16.774-6.71 15.903-13.336-.871-6.626-10.097-10.256-19.881-9.438Zm-34.995-37.456c-1.24 9.759-7.146 16.015-13.302 14.472-6.155-1.542-10.215-11.465-8.608-21.04 1.241-9.76 7.147-16.015 13.302-14.473 6.155 1.542 10.215 11.465 8.608 21.04Zm33.639 7.062c-8.746 5.57-13.527 14.393-9.756 20.53 3.77 6.137 14.072 6.525 22.817.954 8.746-5.57 13.527-14.392 9.756-20.53-3.77-6.136-14.072-6.524-22.817-.954Zm-1.289-4.095c-5.795 8.225-14.486 10.741-19.823 6.364s-4.394-14.452 1.402-22.677c5.795-8.225 14.486-10.741 19.823-6.364s4.394 14.452-1.402 22.677Z"/>
  </g>
  <g fill="#FFFAF3" filter="url(#j)">
    <path d="M1401.83 99.225c8.34-6.826 16.44-1.92 29.7-1.868 19.29.158 25.1 10.336 19.83 17.801-5 7.358-17.09 5.803-23.94 12.362-7.31 6.132-7.07 17.687-15.41 21.794-8.06 3.999-17.13-2.811-14.94-21.793 1.55-12.69-3.38-20.937 4.76-28.296Zm13.6-21.675c.6 9.799 6.61 16.81 12.98 16.191 6.37-.62 10.75-9.975 9.87-19.669-.6-9.8-6.34-16.917-12.98-16.191-6.65.725-10.48 9.87-9.87 19.669Zm-38.22 34.164c9.73 1.455 15.85 7.497 14.18 13.617-1.68 6.12-11.69 9.961-21.23 8.145-9.73-1.455-15.85-7.497-14.17-13.617 1.67-6.12 11.68-9.961 21.22-8.145Zm7.8-33.475c5.38 8.865 14.09 13.839 20.31 10.204 6.22-3.635 6.83-13.926 1.45-22.791-5.37-8.866-14.09-13.84-20.31-10.204-6.21 3.635-6.83 13.925-1.45 22.79Zm-4.12 1.198c8.09 5.975 10.42 14.719 5.92 19.958-4.49 5.24-14.54 4.077-22.64-1.898-8.09-5.975-10.42-14.719-5.92-19.958 4.49-5.24 14.54-4.077 22.64 1.898Z"/>
  </g>
  <defs>
    <filter id="a" width="220.679" height="225.079" x="1288.11" y="875.043" color-interpolation-filters="sRGB" filterUnits="userSpaceOnUse">
      <feFlood flood-opacity="0" result="BackgroundImageFix"/>
      <feBlend in="SourceGraphic" in2="BackgroundImageFix" result="shape"/>
      <feGaussianBlur result="effect1_foregroundBlur_127_358" stdDeviation="4"/>
    </filter>
    <filter id="b" width="226.616" height="223.739" x="-105.822" y="2480.2" color-interpolation-filters="sRGB" filterUnits="userSpaceOnUse">
      <feFlood flood-opacity="0" result="BackgroundImageFix"/>
      <feBlend in="SourceGraphic" in2="BackgroundImageFix" result="shape"/>
      <feGaussianBlur result="effect1_foregroundBlur_127_358" stdDeviation="4"/>
    </filter>
    <filter id="d" width="111.785" height="113.769" x="1113.14" y="1373.98" color-interpolation-filters="sRGB" filterUnits="userSpaceOnUse">
      <feFlood flood-opacity="0" result="BackgroundImageFix"/>
      <feBlend in="SourceGraphic" in2="BackgroundImageFix" result="shape"/>
      <feGaussianBlur result="effect1_foregroundBlur_127_358" stdDeviation="4"/>
    </filter>
    <filter id="e" width="87.098" height="88.571" x="79.969" y="2045.54" color-interpolation-filters="sRGB" filterUnits="userSpaceOnUse">
      <feFlood flood-opacity="0" result="BackgroundImageFix"/>
      <feBlend in="SourceGraphic" in2="BackgroundImageFix" result="shape"/>
      <feGaussianBlur result="effect1_foregroundBlur_127_358" stdDeviation="4"/>
    </filter>
    <filter id="f" width="111.785" height="113.769" x="233.139" y="737.984" color-interpolation-filters="sRGB" filterUnits="userSpaceOnUse">
      <feFlood flood-opacity="0" result="BackgroundImageFix"/>
      <feBlend in="SourceGraphic" in2="BackgroundImageFix" result="shape"/>
      <feGaussianBlur result="effect1_foregroundBlur_127_358" stdDeviation="4"/>
    </filter>
    <filter id="g" width="111.785" height="113.769" x="-40.284" y="978.76" color-interpolation-filters="sRGB" filterUnits="userSpaceOnUse">
      <feFlood flood-opacity="0" result="BackgroundImageFix"/>
      <feBlend in="SourceGraphic" in2="BackgroundImageFix" result="shape"/>
      <feGaussianBlur result="effect1_foregroundBlur_127_358" stdDeviation="4"/>
    </filter>
    <filter id="h" width="111.785" height="113.769" x="1320.08" y="2073.98" color-interpolation-filters="sRGB" filterUnits="userSpaceOnUse">
      <feFlood flood-opacity="0" result="BackgroundImageFix"/>
      <feBlend in="SourceGraphic" in2="BackgroundImageFix" result="shape"/>
      <feGaussianBlur result="effect1_foregroundBlur_127_358" stdDeviation="4"/>
    </filter>
    <filter id="i" width="111.785" height="113.769" x="817.139" y="9.984" color-interpolation-filters="sRGB" filterUnits="userSpaceOnUse">
      <feFlood flood-opacity="0" result="BackgroundImageFix"/>
      <feBlend in="SourceGraphic" in2="BackgroundImageFix" result="shape"/>
      <feGaussianBlur result="effect1_foregroundBlur_127_358" stdDeviation="4"/>
    </filter>
    <filter id="j" width="113.496" height="112.167" x="1347.71" y="46.248" color-interpolation-filters="sRGB" filterUnits="userSpaceOnUse">
      <feFlood flood-opacity="0" result="BackgroundImageFix"/>
      <feBlend in="SourceGraphic" in2="BackgroundImageFix" result="shape"/>
      <feGaussianBlur result="effect1_foregroundBlur_127_358" stdDeviation="4"/>
    </filter>
    <clipPath id="c">
      <path fill="#fff" d="m1389 1517-191.642-11.713-8.785 143.732 191.643 11.713z"/>
    </clipPath>
  </defs>
</svg>
