<svg xmlns="http://www.w3.org/2000/svg" fill="none" viewBox="0 0 1440 1751">
  <g fill="#FFFAF3" filter="url(#a)">
    <path d="M1390.84 981.794c-15.07 17.606-4.01 35.416-4.54 63.936-.6 41.48 20.67 53.54 36.96 42.54 16.05-10.4 12.28-36.42 26.7-50.85 13.53-15.45 38.92-13.46 48.15-31.21 8.98-17.143-4.19-37.796-45.07-33.952-27.33 2.76-46-7.646-62.2 9.536Zm-47.24 27.816c21.28 1.81 36.55 15.05 34.92 28.8-1.62 13.75-20.99 23.6-42.03 21.2-21.27-1.81-36.78-14.45-34.92-28.8 1.87-14.35 20.76-23.01 42.03-21.2Zm75.51-81.562c2.59 21.138 15.63 35.059 28.88 31.673 13.25-3.386 21.39-23.288 18.01-44.026-2.59-21.137-15.63-35.058-28.88-31.672-13.25 3.386-21.4 23.288-18.01 44.025Zm-70.46 13.89c18.66 12.003 27.15 32.397 18.96 45.831-8.19 13.431-30.77 14.311-49.42 2.306-18.66-12.003-27.15-32.396-18.96-45.83 8.19-13.434 30.77-14.31 49.42-2.307Zm1.26-6.386c12.53 17.596 31.54 24.031 42.98 14.728 11.44-9.302 10.64-30.662-1.9-48.258-12.53-17.596-31.54-24.03-42.98-14.728-11.44 9.303-10.63 30.662 1.9 48.258Z"/>
  </g>
  <g fill="#FFFAF3" filter="url(#b)">
    <path d="M1172.19 1428.16c7.01 8.18 2.28 16.4 2.52 29.65.27 19.28-9.78 25.32-17.36 20.21-7.47-4.83-6.18-16.95-12.88-23.66-6.29-7.18-17.84-6.68-22.13-14.92-4.18-7.97 2.43-17.2 21.46-15.42 12.72 1.28 20.86-3.84 28.39 4.14Zm21.97 13.11c-9.78.82-16.66 6.99-15.9 13.34.76 6.35 10.21 10.53 19.88 9.44 9.78-.82 16.77-6.71 15.9-13.34-.87-6.62-10.09-10.25-19.88-9.44Zm-34.99-37.45c-1.24 9.76-7.15 16.01-13.3 14.47-6.16-1.54-10.22-11.47-8.61-21.04 1.24-9.76 7.14-16.02 13.3-14.47 6.15 1.54 10.21 11.46 8.61 21.04Zm33.64 7.06c-8.75 5.57-13.53 14.39-9.76 20.53 3.77 6.14 14.07 6.52 22.82.95 8.74-5.57 13.52-14.39 9.75-20.53-3.77-6.13-14.07-6.52-22.81-.95Zm-1.29-4.1c-5.8 8.23-14.49 10.75-19.83 6.37-5.33-4.38-4.39-14.45 1.41-22.68 5.79-8.22 14.48-10.74 19.82-6.36 5.34 4.37 4.39 14.45-1.4 22.67Z"/>
  </g>
  <g fill="#FFFAF3" filter="url(#c)">
    <path d="M292.194 792.162c7.006 8.18 2.28 16.393 2.519 29.649.264 19.282-9.783 25.318-17.362 20.211-7.467-4.831-6.177-16.956-12.884-23.66-6.292-7.178-17.839-6.682-22.127-14.927-4.175-7.969 2.435-17.192 21.46-15.416 12.721 1.276 20.858-3.84 28.394 4.143Zm21.968 13.112c-9.784.818-16.662 6.984-15.903 13.336.759 6.352 10.209 10.53 19.881 9.438 9.783-.818 16.774-6.71 15.903-13.336-.871-6.626-10.097-10.256-19.881-9.438Zm-34.995-37.456c-1.24 9.759-7.146 16.015-13.302 14.472-6.155-1.542-10.215-11.465-8.608-21.041 1.241-9.759 7.147-16.014 13.302-14.472 6.155 1.542 10.215 11.465 8.608 21.041Zm33.639 7.062c-8.746 5.571-13.527 14.393-9.756 20.53 3.771 6.137 14.072 6.525 22.818.954 8.745-5.57 13.526-14.392 9.756-20.529-3.771-6.137-14.073-6.525-22.818-.955Zm-1.289-4.095c-5.796 8.225-14.486 10.741-19.823 6.364s-4.394-14.452 1.402-22.677c5.795-8.225 14.486-10.741 19.823-6.364s4.394 14.452-1.402 22.677Z"/>
  </g>
  <g fill="#FFFAF3" filter="url(#d)">
    <path d="M18.77 1032.94c7.007 8.18 2.281 16.39 2.52 29.65.264 19.28-9.783 25.32-17.362 20.21-7.467-4.83-6.177-16.96-12.884-23.66-6.292-7.18-17.839-6.68-22.127-14.93-4.175-7.97 2.435-17.19 21.46-15.41 12.721 1.27 20.858-3.84 28.394 4.14Zm21.969 13.11c-9.784.82-16.662 6.99-15.903 13.34.759 6.35 10.209 10.53 19.88 9.43 9.784-.81 16.775-6.71 15.904-13.33-.871-6.63-10.097-10.26-19.881-9.44Zm-34.995-37.46c-1.24 9.76-7.146 16.02-13.302 14.48-6.155-1.55-10.215-11.47-8.608-21.04 1.24-9.763 7.147-16.019 13.302-14.476 6.155 1.542 10.215 11.465 8.608 21.036Zm33.639 7.07c-8.746 5.57-13.527 14.39-9.756 20.53 3.77 6.13 14.072 6.52 22.817.95 8.746-5.57 13.527-14.39 9.756-20.53-3.77-6.14-14.072-6.52-22.817-.95Zm-1.289-4.1c-5.796 8.23-14.486 10.74-19.823 6.37-5.337-4.38-4.394-14.46 1.401-22.682 5.796-8.224 14.487-10.741 19.824-6.364 5.337 4.377 4.394 14.456-1.402 22.676Z"/>
  </g>
  <g fill="#FFFAF3" filter="url(#e)">
    <path d="M876.194 64.162c7.006 8.18 2.28 16.393 2.519 29.649.264 19.282-9.783 25.318-17.362 20.211-7.467-4.831-6.177-16.956-12.884-23.66-6.292-7.178-17.839-6.682-22.127-14.927-4.175-7.97 2.435-17.192 21.46-15.416 12.721 1.276 20.858-3.84 28.394 4.143Zm21.968 13.112c-9.784.818-16.662 6.984-15.903 13.336.759 6.352 10.209 10.53 19.881 9.438 9.783-.818 16.774-6.71 15.903-13.336-.871-6.626-10.097-10.256-19.881-9.438Zm-34.995-37.456c-1.24 9.759-7.146 16.015-13.302 14.472-6.155-1.542-10.215-11.465-8.608-21.04 1.241-9.76 7.147-16.015 13.302-14.473 6.155 1.542 10.215 11.465 8.608 21.04Zm33.639 7.062c-8.746 5.57-13.527 14.393-9.756 20.53 3.771 6.137 14.072 6.525 22.818.954 8.745-5.57 13.526-14.392 9.756-20.53-3.771-6.136-14.073-6.524-22.818-.954Zm-1.289-4.095c-5.796 8.225-14.486 10.741-19.823 6.364s-4.394-14.452 1.402-22.677c5.795-8.225 14.486-10.741 19.823-6.364s4.394 14.452-1.402 22.677Z"/>
  </g>
  <g fill="#FFFAF3" filter="url(#f)">
    <path d="M1401.83 99.225c8.34-6.826 16.44-1.92 29.7-1.868 19.29.158 25.1 10.336 19.83 17.801-5 7.358-17.09 5.803-23.94 12.362-7.31 6.132-7.07 17.687-15.41 21.794-8.06 3.999-17.13-2.811-14.94-21.793 1.55-12.69-3.38-20.937 4.76-28.296Zm13.6-21.675c.6 9.799 6.61 16.81 12.98 16.191 6.37-.62 10.75-9.975 9.87-19.669-.6-9.8-6.34-16.917-12.98-16.191-6.65.725-10.48 9.87-9.87 19.669Zm-38.22 34.164c9.73 1.455 15.85 7.497 14.18 13.617-1.68 6.12-11.69 9.961-21.23 8.145-9.73-1.455-15.85-7.497-14.17-13.617 1.67-6.12 11.68-9.961 21.22-8.145Zm7.8-33.475c5.38 8.865 14.09 13.839 20.31 10.204 6.22-3.635 6.83-13.926 1.45-22.791-5.37-8.866-14.09-13.84-20.31-10.204-6.21 3.635-6.83 13.925-1.45 22.79Zm-4.12 1.198c8.09 5.975 10.42 14.719 5.92 19.958-4.49 5.24-14.54 4.077-22.64-1.898-8.09-5.975-10.42-14.719-5.92-19.958 4.49-5.24 14.54-4.077 22.64 1.898Z"/>
  </g>
  <defs>
    <filter id="a" width="220.679" height="225.079" x="1288.11" y="875.043" color-interpolation-filters="sRGB" filterUnits="userSpaceOnUse">
      <feFlood flood-opacity="0" result="BackgroundImageFix"/>
      <feBlend in="SourceGraphic" in2="BackgroundImageFix" result="shape"/>
      <feGaussianBlur result="effect1_foregroundBlur_140_195" stdDeviation="4"/>
    </filter>
    <filter id="b" width="111.785" height="113.769" x="1113.14" y="1373.98" color-interpolation-filters="sRGB" filterUnits="userSpaceOnUse">
      <feFlood flood-opacity="0" result="BackgroundImageFix"/>
      <feBlend in="SourceGraphic" in2="BackgroundImageFix" result="shape"/>
      <feGaussianBlur result="effect1_foregroundBlur_140_195" stdDeviation="4"/>
    </filter>
    <filter id="c" width="111.785" height="113.769" x="233.14" y="737.984" color-interpolation-filters="sRGB" filterUnits="userSpaceOnUse">
      <feFlood flood-opacity="0" result="BackgroundImageFix"/>
      <feBlend in="SourceGraphic" in2="BackgroundImageFix" result="shape"/>
      <feGaussianBlur result="effect1_foregroundBlur_140_195" stdDeviation="4"/>
    </filter>
    <filter id="d" width="111.785" height="113.769" x="-40.284" y="978.76" color-interpolation-filters="sRGB" filterUnits="userSpaceOnUse">
      <feFlood flood-opacity="0" result="BackgroundImageFix"/>
      <feBlend in="SourceGraphic" in2="BackgroundImageFix" result="shape"/>
      <feGaussianBlur result="effect1_foregroundBlur_140_195" stdDeviation="4"/>
    </filter>
    <filter id="e" width="111.785" height="113.769" x="817.14" y="9.984" color-interpolation-filters="sRGB" filterUnits="userSpaceOnUse">
      <feFlood flood-opacity="0" result="BackgroundImageFix"/>
      <feBlend in="SourceGraphic" in2="BackgroundImageFix" result="shape"/>
      <feGaussianBlur result="effect1_foregroundBlur_140_195" stdDeviation="4"/>
    </filter>
    <filter id="f" width="113.496" height="112.167" x="1347.71" y="46.248" color-interpolation-filters="sRGB" filterUnits="userSpaceOnUse">
      <feFlood flood-opacity="0" result="BackgroundImageFix"/>
      <feBlend in="SourceGraphic" in2="BackgroundImageFix" result="shape"/>
      <feGaussianBlur result="effect1_foregroundBlur_140_195" stdDeviation="4"/>
    </filter>
  </defs>
</svg>
