<svg xmlns="http://www.w3.org/2000/svg" fill="none" viewBox="0 0 32 14">
  <path fill="#FA0" d="M31.794 6.015c.365-.827.166-2.046 0-2.954a3.954 3.954 0 0 0-.929-1.97c-.48-.56-1.189-.825-1.858-.984-.53-.138-1.329-.147-1.858 0-.529.146-.51.584-.93.984-1.042.95-2.386 1.018-3.715.985H9.496c-1.33.033-2.673-.034-3.716-.985-.418-.4-.4-.838-.929-.984-.529-.147-1.327-.138-1.858 0-.67.16-1.379.424-1.858.984-.48.56-.8 1.198-.93 1.97-.165.908-.364 2.127 0 2.954.133.298.93.65.93.985 0 .335-.797.687-.93.985-.363.828-.165 2.046 0 2.954.13.773.45 1.409.93 1.97.48.56 1.189.823 1.858.984.53.138 1.329.147 1.858 0 .529-.146.51-.584.93-.984 1.041-.952 2.385-1.016 3.715-.985h13.008c1.33-.031 2.674.033 3.716.985.418.4.4.838.929.984.529.147 1.327.138 1.858 0 .67-.161 1.379-.423 1.858-.984.48-.561.8-1.197.93-1.97.165-.908.363-2.126 0-2.954-.133-.298-.93-.65-.93-.985 0-.335.797-.687.93-.985Z"/>
</svg>
