<svg xmlns="http://www.w3.org/2000/svg" aria-hidden="true" overflow="hidden" style="position: absolute; width: 0; height: 0">
  <defs>
    <symbol id="icon-logo" viewBox="0 0 32 32">
      <path fill="#fcb62a" style="fill: var(--color1, #fcb62a)" d="M15.559 18.557c0.182 3.691 2.861 4.162 5.358 7.263 3.695 4.435 6.668 3.118 7.174-0.080 0.476-3.073-2.121-5.266-2.293-8.551s2.271-6.253 1.525-9.188c-0.746-2.934-3.824-3.399-7.097 1.99-2.21 3.718-4.757 4.904-4.668 8.566z"/>
      <path fill="#ff9f0e" style="fill: var(--color2, #ff9f0e)" d="M9.971 9.459c2.092 1.699 4.582 1.092 5.468-0.778s-0.185-5.15-2.303-6.731c-2.092-1.699-4.582-1.092-5.468 0.778-0.86 1.752 0.211 5.031 2.303 6.73z"/>
      <path fill="#fcb62a" style="fill: var(--color1, #fcb62a)" d="M4.798 18.931c2.467 0.132 4.711-1.56 4.987-4.028 0.249-2.343-1.527-4.403-4.077-4.562-2.467-0.132-4.711 1.56-4.988 4.028-0.248 2.343 1.61 4.43 4.078 4.562z"/>
      <path fill="#fa0" style="fill: var(--color3, #fa0)" d="M5.971 30.71c2.242 0.049 4.481-1.872 4.789-4.365 0.279-2.366-1.157-5.012-3.474-5.085-2.242-0.049-4.481 1.872-4.789 4.365-0.279 2.366 1.232 5.037 3.474 5.085z"/>
    </symbol>
    <symbol id="icon-dogclub" viewBox="0 0 180 32">
      <path d="M2.087 31.333v-23.339l-0.853-4.267 0.853-2.603h12.713c2.048 0 4.011 0.2 5.888 0.597 1.907 0.369 3.597 1.080 5.077 2.133 1.507 1.053 2.688 2.56 3.541 4.523 0.881 1.963 1.323 4.508 1.323 7.637s-0.44 5.703-1.323 7.723c-0.883 1.991-2.077 3.541-3.584 4.651-1.449 1.071-3.167 1.872-5.030 2.287l-0.090 0.017c-1.877 0.427-3.812 0.64-5.803 0.64h-12.713zM9.852 24.507h4.948c2.503 0 4.423-0.653 5.76-1.963 1.336-1.337 2.005-3.513 2.005-6.528s-0.683-5.107-2.048-6.272c-1.337-1.195-3.243-1.792-5.717-1.792h-4.948v16.555zM48.511 31.76c-1.821 0-3.599-0.213-5.333-0.64-1.791-0.486-3.348-1.31-4.671-2.406l0.020 0.016c-1.365-1.137-2.461-2.716-3.285-4.736-0.797-2.020-1.195-4.608-1.195-7.765s0.397-5.747 1.195-7.765c0.824-2.020 1.92-3.599 3.285-4.736 1.299-1.078 2.859-1.89 4.569-2.329l0.082-0.018c1.591-0.434 3.418-0.683 5.302-0.683 0.011 0 0.022 0 0.033 0h-0.002c1.82 0 3.584 0.227 5.291 0.683 1.794 0.473 3.353 1.298 4.669 2.404l-0.018-0.015c1.393 1.137 2.488 2.716 3.285 4.736 0.824 2.020 1.237 4.593 1.237 7.723s-0.413 5.703-1.237 7.723c-0.797 2.020-1.892 3.599-3.285 4.736-1.298 1.091-2.857 1.917-4.568 2.371l-0.083 0.019c-1.573 0.434-3.378 0.683-5.242 0.683-0.017 0-0.034-0-0.051-0h0.003zM48.511 24.507c2.104 0 3.697-0.627 4.779-1.877 1.080-1.252 1.621-3.385 1.621-6.4s-0.541-5.148-1.621-6.4c-1.080-1.252-2.675-1.877-4.779-1.877-2.077 0-3.656 0.64-4.736 1.92s-1.621 3.4-1.621 6.357c0 2.959 0.54 5.077 1.621 6.357 1.080 1.28 2.659 1.92 4.736 1.92zM82.551 31.76c-2.191 0-4.267-0.213-6.229-0.64-1.933-0.455-3.656-1.252-5.163-2.389-1.48-1.137-2.645-2.716-3.499-4.736s-1.28-4.608-1.28-7.765c0-3.044 0.455-5.56 1.365-7.552 0.909-2.020 2.12-3.613 3.627-4.779 1.437-1.107 3.134-1.959 4.977-2.452l0.1-0.023c1.703-0.46 3.657-0.724 5.674-0.725h0.001c1.393 0 2.603 0.071 3.627 0.213s2.005 0.327 2.944 0.555l5.803 3.371-2.987 6.613-9.429-3.328c-0.024-0-0.053-0-0.081-0-1.348 0-2.626 0.299-3.771 0.834l0.055-0.023c-1.139 0.54-2.063 1.408-2.773 2.603-0.683 1.167-1.024 2.745-1.024 4.736 0 3.213 0.711 5.476 2.133 6.784 1.451 1.28 3.427 1.92 5.931 1.92 1.28 0 2.275-0.057 2.987-0.171 1.141-0.205 1.718-0.323 2.293-0.448l-0.586 0.106v-3.243h-5.419v-6.315h13.568l0.469 2.56-0.939 3.541v8.96c-0.313 0.113-1.024 0.313-2.133 0.597-1.080 0.284-2.504 0.555-4.267 0.811-1.736 0.256-3.727 0.384-5.973 0.384zM109.781 31.653c-1.259 0-2.528-0.181-3.808-0.544-1.341-0.397-2.504-1.022-3.506-1.838l0.018 0.014c-1.045-0.875-1.888-2.059-2.528-3.552-0.64-1.515-0.96-3.424-0.96-5.728 0-2.325 0.448-4.352 1.344-6.080 0.917-1.749 2.165-3.115 3.744-4.096s3.371-1.472 5.376-1.472c0.96 0 1.877 0.085 2.752 0.256 0.896 0.171 1.579 0.363 2.048 0.576l3.552 3.232-2.24 3.36-5.472-2.816c-1.195 0-2.272 0.288-3.232 0.864s-1.728 1.397-2.304 2.464c-0.555 1.045-0.832 2.283-0.832 3.712 0 1.643 0.288 2.997 0.864 4.064 0.597 1.067 1.408 1.867 2.432 2.4 1.024 0.512 2.165 0.768 3.424 0.768 1.28 0 2.379-0.107 3.296-0.32 0.893-0.219 1.661-0.482 2.397-0.804l-0.093 0.036c0.554-0.258 1.015-0.514 1.457-0.798l-0.049 0.030v4.352c-0.597 0.405-1.515 0.832-2.752 1.28-1.216 0.427-2.859 0.64-4.928 0.64zM121.525 31.333l-0.64-1.92 0.64-3.2v-17.536h4.48v13.152l-0.32 5.344h0.64l7.007-0.32 2.273-0.32 2.176 2.752-1.568 2.048h-14.688zM147.767 31.653c-2.197 0-3.925-0.363-5.184-1.088-1.237-0.725-2.123-1.792-2.656-3.2-0.512-1.429-0.768-3.168-0.768-5.216v-8.32l0.032-3.232-0.032-1.92h4.544v13.792c0 1.493 0.299 2.709 0.896 3.648 0.597 0.917 1.653 1.376 3.168 1.376s2.581-0.427 3.2-1.28c0.64-0.875 0.96-2.123 0.96-3.744v-13.792h4.448v13.472c0 2.005-0.256 3.723-0.768 5.152-0.491 1.408-1.365 2.485-2.624 3.232-1.237 0.747-2.976 1.12-5.216 1.12zM160.525 31.333v-17.536l-0.64-3.2 0.64-1.92h8.32c1.621 0 3.019 0.192 4.192 0.576 1.195 0.363 2.123 0.96 2.784 1.792s0.992 1.941 0.992 3.328c0 0.853-0.149 1.664-0.448 2.432-0.297 0.774-0.794 1.415-1.428 1.88l-0.012 0.008c1.344 0.469 2.368 1.173 3.072 2.112s1.056 2.187 1.056 3.744c0 2.368-0.661 4.096-1.984 5.184-1.323 1.067-3.317 1.6-5.984 1.6h-10.56zM165.005 17.797h4.416c1.792 0 2.688-0.789 2.688-2.368 0-0.789-0.181-1.419-0.544-1.888s-1.077-0.704-2.144-0.704h-4.416v4.96zM165.005 27.173h5.76c1.131 0 1.952-0.256 2.464-0.768 0.533-0.512 0.8-1.227 0.8-2.144 0-0.875-0.288-1.536-0.864-1.984-0.555-0.448-1.461-0.672-2.72-0.672h-5.44v5.568z"/>
    </symbol>
    <symbol id="icon-basket" viewBox="0 0 32 32">
      <path d="M1.857 12.878h28.293v-2.081h-28.293v2.081zM29.532 12.26v0.914h2.081v-0.914h-2.081zM26.173 29.528h-20.338v2.081h20.338v-2.081zM2.475 13.174v-0.914h-2.081v0.914h2.081zM6.421 29.891c-2.595-5.19-3.946-10.914-3.946-16.717h-2.081c0 6.127 1.426 12.169 4.167 17.649l1.861-0.932zM5.834 29.528c0.25 0 0.477 0.142 0.587 0.362l-1.861 0.932c0.119 0.236 0.3 0.435 0.525 0.574s0.484 0.213 0.748 0.213v-2.081zM25.586 29.891c0.055-0.109 0.138-0.201 0.242-0.265s0.223-0.098 0.345-0.098v2.081c0.541 0 1.032-0.304 1.274-0.787l-1.861-0.932zM29.532 13.174c0 5.803-1.353 11.526-3.946 16.717l1.861 0.932c2.74-5.48 4.167-11.523 4.167-17.649h-2.081zM30.15 12.878c-0.164 0-0.321-0.065-0.437-0.181s-0.181-0.273-0.181-0.437h2.081c0-0.388-0.154-0.76-0.429-1.035s-0.647-0.429-1.035-0.429v2.081zM1.857 10.797c-0.388 0-0.76 0.154-1.035 0.429s-0.429 0.647-0.429 1.035h2.081c0 0.164-0.065 0.321-0.181 0.437s-0.273 0.181-0.437 0.181v-2.081zM8.571 12.372l6.244-10.406-1.788-1.070-6.244 10.407 1.788 1.070zM17.192 1.966l6.244 10.406 1.786-1.070-6.244-10.407-1.786 1.070zM10.8 21.203h10.406v-2.081h-10.406v2.081z"/>
    </symbol>
    <symbol id="icon-bathing" viewBox="0 0 32 32">
      <path d="M22.772 14.919c-0.2-0.463-0.549-1.030-1.247-1.493-0.399-0.257-1.945-0.463-1.995 0.978 0 0-0.648 0.103-0.599 0.566 0 0-0.399 1.39 1.496 1.236 0 0 0.349 2.625 0.648 3.192 0 0 0.15 0.515 0.2 1.030h0.798l0.050-1.030c0 0 0.449 0.309 0.798 1.030h1.147c-0.050-0.412-0.1-0.772-0.2-1.030 0 0 1.696 0 2.294-0.772 0 0 0.499 0.978 1.097 1.030v0.824h0.798c0.050-0.154 0.050-0.309 0.1-0.566 0 0 0.299 0.154 0.449 0.566h0.698c-0.1-0.36-0.998-3.707-1.297-3.964 0 0 0.449-0.051 0.599 0.515 0 0 0.249 1.184 0.748 1.133 0 0 0.349-0.772-0.249-1.75 0 0-0.249-0.721-1.546-0.618l-3.741-0.103c-0.499-0.103-0.848-0.412-1.047-0.772z"/>
      <path d="M18.233 10.955c0.299-0.412 0.249-1.030-0.15-1.39-0.399-0.309-0.998-0.257-1.347 0.154-0.948 1.236-2.644 1.441-3.841 0.927l-0.648 1.853c2.045 0.824 4.539 0.412 5.986-1.544z"/>
      <path d="M9.753 7.712c1.35 0 2.444-1.129 2.444-2.522s-1.094-2.523-2.444-2.523-2.444 1.129-2.444 2.523c0 1.393 1.094 2.522 2.444 2.522z"/>
      <path d="M11.2 20.994l-2.095-0.875 1.247-3.655c-2.793-1.596-3.791-4.118-3.841-4.273-0.299-0.772 0.050-1.596 0.798-1.905s1.546 0.051 1.846 0.824c0.050 0.103 0.648 1.441 2.195 2.523l0.948-2.677c0.1-0.309 0.050-0.618-0.15-0.875-1.796-2.059-3.891-2.831-6.185-2.111-0.648 0.206-1.097 0.721-1.247 1.39l-1.995 10.708c0 0.052 0 0.052 0 0.103s0 0.154 0 0.206l0.1 4.891-1.097-0.257c-0.748-0.154-1.546 0.36-1.696 1.133s0.349 1.596 1.097 1.75l2.843 0.618c0.449 0.103 0.848 0 1.197-0.309s0.549-0.721 0.499-1.184l-0.1-5.148 3.641 1.493v4.479c0 0.824 0.648 1.493 1.447 1.493s1.447-0.669 1.447-1.493v-5.457c0.050-0.618-0.349-1.133-0.898-1.39z"/>
      <path d="M15.041 15.382c-4.739-0.36-6.235-3.912-6.285-4.067-0.2-0.515-0.748-0.721-1.247-0.515s-0.698 0.772-0.499 1.287c0.1 0.206 1.995 4.839 7.931 5.302 0.549 0.051 0.998-0.36 0.998-0.927s-0.349-1.030-0.898-1.081z"/>
      <path d="M23.57 8.69c-0.998 0.206-1.746 1.133-1.746 2.214h4.439c0-1.184-0.848-2.111-1.945-2.265-1.496-1.699-3.891-1.030-5.786 0.669 0.1 0.103 0.2 0.257 0.299 0.412 1.347-1.287 3.192-2.162 4.739-1.030z"/>
      <path d="M31.152 20.891h-14.016c-0.399 0-0.748 0.36-0.748 0.772s0.349 0.772 0.748 0.772h0.15v1.287c0 2.008 1.596 3.655 3.542 3.655h6.734c1.945 0 3.541-1.647 3.541-3.655v-1.287h0.15c0.399 0 0.748-0.36 0.748-0.772-0.1-0.463-0.449-0.772-0.848-0.772z"/>
      <path d="M22.223 11.933l0.050-0.463c0-0.154-0.050-0.257-0.2-0.257s-0.249 0.052-0.249 0.206l-0.050 0.463c0 0.154 0.050 0.257 0.2 0.257 0.1 0 0.2-0.103 0.249-0.206z"/>
      <path d="M21.625 12.551l-0.050 0.463c0 0.154 0.050 0.257 0.2 0.257s0.249-0.052 0.249-0.206l0.050-0.463c0-0.154-0.050-0.257-0.2-0.257-0.1 0-0.2 0.103-0.249 0.206z"/>
      <path d="M23.321 12.139c0.15 0 0.249-0.103 0.249-0.257v-0.515c0-0.154-0.1-0.257-0.249-0.257s-0.249 0.103-0.249 0.257v0.515c0 0.103 0.15 0.257 0.249 0.257z"/>
      <path d="M23.021 13.066c0 0.154 0.1 0.257 0.249 0.257s0.249-0.103 0.249-0.257v-0.515c0-0.154-0.1-0.257-0.249-0.257s-0.249 0.103-0.249 0.257v0.515z"/>
      <path d="M24.668 11.161c-0.15 0-0.249 0.103-0.249 0.257v0.515c0 0.154 0.1 0.257 0.249 0.257s0.249-0.103 0.249-0.257v-0.515c0-0.154-0.1-0.257-0.249-0.257z"/>
      <path d="M24.518 12.602v0.515c0 0.154 0.1 0.257 0.249 0.257s0.249-0.103 0.249-0.257v-0.515c0-0.154-0.1-0.257-0.249-0.257-0.2 0-0.299 0.103-0.249 0.257z"/>
      <path d="M25.964 11.161c-0.15 0-0.2 0.154-0.2 0.257l0.050 0.463c0 0.103 0.1 0.206 0.249 0.206s0.249-0.154 0.249-0.309l-0.1-0.412c0-0.154-0.15-0.257-0.249-0.206z"/>
      <path d="M25.915 12.654l0.050 0.463c0 0.103 0.15 0.206 0.249 0.206 0.15 0 0.249-0.154 0.2-0.257v-0.515c0-0.154-0.15-0.206-0.249-0.206-0.15 0.051-0.249 0.154-0.249 0.309z"/>
    </symbol>
    <symbol id="icon-facebook" viewBox="0 0 32 32">
      <path d="M29 0h-26c-1.65 0-3 1.35-3 3v26c0 1.65 1.35 3 3 3h13v-14h-4v-4h4v-2c0-3.306 2.694-6 6-6h4v4h-4c-1.1 0-2 0.9-2 2v2h6l-1 4h-5v14h9c1.65 0 3-1.35 3-3v-26c0-1.65-1.35-3-3-3z"/>
    </symbol>
    <symbol id="icon-grooming" viewBox="0 0 32 32">
      <path d="M21.1 9.363c-0.085-0.371-0.316-0.65-0.633-0.765-0.023-0.008-0.047-0.009-0.070-0.016 0.228-1.036 0.87-4.801-1.234-7.004-1.219-1.277-3.121-1.782-5.651-1.504-0.046-0.019-0.097-0.030-0.149-0.031-1.987-0.064-3.508 0.484-4.504 1.626-1.953 2.238-1.246 6.013-1.042 6.908-0.030 0.008-0.061 0.010-0.090 0.020-0.318 0.115-0.549 0.394-0.633 0.765-0.076 0.331-0.033 0.712 0.118 1.075 0.278 0.665 0.841 1.090 1.381 1.090 0.058 0 0.115-0.005 0.172-0.015 0.458 1.357 1.223 2.486 2.487 3.179v1.392h-0.656v3.925h7.002v-3.925h-0.657v-1.383c1.266-0.692 2.031-1.824 2.489-3.187 0.056 0.010 0.113 0.014 0.17 0.014 0.54 0 1.103-0.425 1.381-1.089 0.151-0.363 0.194-0.745 0.118-1.075zM7.814 10.22c-0.105-0.251-0.137-0.518-0.088-0.732 0.039-0.169 0.125-0.289 0.236-0.33 0.030-0.011 0.063-0.016 0.098-0.016 0.063 0 0.133 0.018 0.205 0.051 0.074 0.599 0.179 1.18 0.326 1.731-0.247-0.005-0.594-0.269-0.776-0.705zM17.312 16.684c-0.643 0.629-1.84 1.052-3.215 1.052s-2.573-0.424-3.215-1.052h0.694c0.178 0 0.323-0.135 0.323-0.301v-1.392c0.63 0.241 1.362 0.392 2.215 0.432 0.839-0.040 1.56-0.188 2.182-0.425v1.385c0 0.166 0.145 0.301 0.323 0.301h0.694zM19.296 8.874c-0.021 0.185-0.043 0.37-0.069 0.547-0.067 0.453-0.153 0.88-0.258 1.284-0.040 0.152-0.084 0.299-0.13 0.444-0.396 1.263-1.020 2.247-1.984 2.876-0.142 0.093-0.296 0.174-0.454 0.251-0.633 0.312-1.384 0.503-2.289 0.546-0.902-0.043-1.653-0.23-2.287-0.537-0.168-0.081-0.331-0.168-0.483-0.267-0.966-0.63-1.591-1.612-1.988-2.872-0.046-0.145-0.090-0.291-0.13-0.444-0.105-0.403-0.191-0.829-0.258-1.281-0.027-0.178-0.048-0.362-0.069-0.547-0.057-0.495-0.098-1.013-0.122-1.556 0.076-0.441 0.186-0.807 0.318-1.107 0.199-0.031 0.628-0.118 1.133-0.334 0.080 0.102 0.215 0.167 0.353 0.158 0.072-0.003 1.024-0.054 2.030-0.421-0.005 0.042-0.002 0.086 0.009 0.129 0.043 0.168 0.203 0.288 0.389 0.292 0.086 0.003 1.797 0.022 2.853-1.101 0.407 0.908 1.322 2.395 3.187 3.328l0.278 0.357c-0.009 0.087-0.020 0.17-0.030 0.256zM20.379 10.22c-0.182 0.435-0.527 0.699-0.774 0.704 0.146-0.552 0.25-1.132 0.324-1.731 0.072-0.033 0.142-0.050 0.205-0.050 0.035 0 0.068 0.005 0.098 0.016 0.152 0.055 0.213 0.23 0.236 0.33 0.049 0.214 0.016 0.481-0.089 0.732zM13.364 11.002v-0.843c0-0.166 0.145-0.301 0.323-0.301s0.323 0.135 0.323 0.301v0.775h0.497c0.178 0 0.323 0.135 0.323 0.301s-0.145 0.301-0.323 0.301h-0.57c-0.316 0-0.573-0.239-0.573-0.533zM11.819 9.069c0 0.323-0.282 0.585-0.629 0.585s-0.629-0.262-0.629-0.585c0-0.323 0.282-0.585 0.629-0.585s0.629 0.262 0.629 0.585zM17.633 9.069c0 0.323-0.282 0.585-0.629 0.585s-0.629-0.262-0.629-0.585c0-0.323 0.282-0.585 0.629-0.585s0.629 0.262 0.629 0.585zM15.679 12.854c0 0.485-0.817 0.658-1.582 0.658s-1.582-0.173-1.582-0.658c0-0.166 0.145-0.301 0.323-0.301 0.144 0 0.266 0.088 0.308 0.209 0.108 0.060 0.448 0.149 0.951 0.149s0.843-0.089 0.951-0.149c0.042-0.121 0.164-0.209 0.308-0.209 0.178 0 0.323 0.135 0.323 0.301zM31.891 22.231c-0.093-0.152-0.237-0.265-0.409-0.331 0.027-0.165 0-0.339-0.095-0.496-0.093-0.152-0.237-0.265-0.409-0.33 0.027-0.165 0-0.339-0.095-0.496s-0.243-0.267-0.409-0.33c0.027-0.165 0.001-0.34-0.095-0.496-0.11-0.18-0.288-0.308-0.502-0.363-0.212-0.054-0.437-0.029-0.63 0.073l-0.328 0.173c-0.062-0.095-0.145-0.18-0.246-0.252v-0.329h1.831c0.178 0 0.323-0.135 0.323-0.301s-0.145-0.301-0.323-0.301h-1.831v-0.301h1.831c0.178 0 0.323-0.135 0.323-0.301s-0.145-0.301-0.323-0.301h-1.831v-0.301h1.831c0.178 0 0.323-0.135 0.323-0.301s-0.145-0.301-0.323-0.301h-1.831v-0.301h1.831c0.178 0 0.323-0.135 0.323-0.301s-0.145-0.301-0.323-0.301h-1.831l0.002-0.301h1.829c0.178 0 0.323-0.135 0.323-0.301s-0.145-0.301-0.323-0.301h-1.829c-0.364 0-0.648 0.308-0.648 0.701v1.448c-0.028-0.342-0.164-0.685-0.404-0.98-0.59-0.728-1.602-0.947-2.253-0.489-0.34 0.239-0.512 0.615-0.519 1.023-0.424-0.105-0.861-0.054-1.2 0.184-0.327 0.23-0.519 0.603-0.526 1.023-0.006 0.389 0.141 0.789 0.415 1.127s0.648 0.579 1.052 0.68c0.135 0.034 0.27 0.050 0.402 0.050 0.295 0 0.573-0.082 0.799-0.241 0.021-0.015 0.037-0.035 0.057-0.051l1.014 1.131-0.366 0.734c-0.028 0.045-0.053 0.091-0.076 0.139l-2.131 1.125-3.636-5.555c-0.089-0.136-0.198-0.253-0.314-0.36-0.192-0.231-0.47-0.396-0.793-0.449-0.314-0.097-0.648-0.128-0.98-0.076v4.029c0.079 0.023 0.152 0.056 0.216 0.101 0.119 0.083 0.206 0.2 0.242 0.338l1.59 6.197v-2.518l1.211 1.851c0.385 0.588 1.058 0.914 1.75 0.914 0.343 0 0.69-0.080 1.008-0.249l3.88-2.048c0.016-0.008 0.028-0.020 0.044-0.029 0.030 0.002 0.061 0.006 0.091 0.006 0.252 0 0.508-0.059 0.743-0.183l0.729-0.385 0.045 0.050c0.147 0.164 0.407 0.192 0.591 0.063l0.407-0.286c0.134-0.094 0.185-0.254 0.148-0.409l0.317-0.168c0.193-0.102 0.331-0.267 0.39-0.467s0.031-0.407-0.079-0.586zM30.011 20.843l0.059-0.031c0.028-0.014 0.059-0.022 0.090-0.022 0.016 0 0.033 0.002 0.049 0.006 0.048 0.012 0.087 0.041 0.111 0.080 0.050 0.082 0.019 0.187-0.069 0.233l-0.846 0.447c-0.043 0.022-0.092 0.027-0.139 0.016s-0.087-0.041-0.111-0.080c-0.050-0.082-0.019-0.187 0.069-0.233l0.787-0.416zM28.973 20.375l0.008-0.016c0.006-0.012 0.008-0.025 0.013-0.037 0.006-0.014 0.010-0.028 0.015-0.043l0.556-0.294c0.028-0.015 0.059-0.022 0.090-0.022 0.016 0 0.033 0.002 0.049 0.006 0.048 0.012 0.087 0.041 0.111 0.080 0.031 0.051 0.028 0.11 0.002 0.159-0.016 0.030-0.038 0.057-0.071 0.075l-0.846 0.447c-0.035 0.018-0.075 0.022-0.115 0.018l0.187-0.373zM25.273 18.735c-0.156 0.109-0.355 0.082-0.46 0.056-0.216-0.054-0.43-0.196-0.587-0.389s-0.244-0.423-0.241-0.632c0.002-0.101 0.028-0.286 0.184-0.396 0.078-0.055 0.175-0.081 0.279-0.081 0.253 0 0.555 0.152 0.767 0.413 0.299 0.369 0.325 0.839 0.058 1.027zM25.946 17.194c-0.299-0.368-0.325-0.839-0.057-1.027 0.078-0.055 0.174-0.081 0.279-0.081 0.253 0 0.555 0.153 0.767 0.414 0.157 0.193 0.245 0.423 0.242 0.631-0.002 0.101-0.028 0.286-0.184 0.396s-0.355 0.082-0.459 0.056c-0.216-0.054-0.43-0.196-0.587-0.389zM26.778 19.61c-0.147-0.182-0.109-0.44 0.087-0.577s0.473-0.101 0.62 0.081c0.052 0.064 0.072 0.137 0.080 0.21-0.121 0.073-0.223 0.172-0.287 0.298l-0.070 0.141c-0.158 0.026-0.326-0.025-0.43-0.153zM29.319 23.741l-0.296 0.156c-0.413 0.219-0.942 0.083-1.177-0.301l-0.799-1.308c-0.114-0.187-0.143-0.403-0.082-0.61l0.004-0.007 0.896-1.795c0.023-0.045 0.085-0.075 0.162-0.081 0.057-0.005 0.121 0.001 0.187 0.030s0.113 0.071 0.145 0.114c0.007 0.010 0.016 0.019 0.021 0.029 0.027 0.050 0.034 0.1 0.015 0.138l-0.793 1.584c-0.013 0.025-0.015 0.052-0.020 0.078-0.023 0.13 0.042 0.263 0.177 0.322 0.044 0.019 0.090 0.028 0.136 0.028s0.090-0.012 0.132-0.029v1.428c0 0.166 0.145 0.301 0.323 0.301s0.323-0.135 0.323-0.301v-1.043l0.979 1.092-0.333 0.176zM29.91 22.382c-0.043 0.022-0.093 0.029-0.139 0.016s-0.087-0.041-0.111-0.080c-0.050-0.082-0.019-0.187 0.069-0.233l0.846-0.447c0.028-0.015 0.059-0.022 0.090-0.022 0.016 0 0.033 0.002 0.049 0.006 0.047 0.012 0.087 0.041 0.111 0.080 0.050 0.082 0.019 0.187-0.069 0.233l-0.846 0.447zM31.347 22.658c-0.013 0.044-0.044 0.081-0.086 0.103 0 0 0 0-0 0l-0.845 0.447c-0.038 0.021-0.081 0.024-0.122 0.018-0.052-0.009-0.101-0.036-0.129-0.082-0.050-0.082-0.019-0.187 0.069-0.233l0.846-0.447c0.028-0.014 0.059-0.022 0.090-0.022 0.005 0 0.010 0.002 0.015 0.002 0.011 0.001 0.023 0.002 0.034 0.004 0.048 0.012 0.087 0.041 0.111 0.081s0.030 0.085 0.017 0.13zM20.551 31.361l-0.18-3.894c-0.001-0.010-0.002-0.020-0.005-0.031l-1.761-6.865c-0.006-0.026-0.020-0.049-0.038-0.070-0.048-0.057-0.131-0.094-0.224-0.094h-8.492c-0.093 0-0.176 0.037-0.224 0.094-0.018 0.021-0.032 0.044-0.038 0.070l-1.546 6.030-0.241-0.126c-0.051-0.026-0.102-0.047-0.152-0.068l1.52-5.928c0.035-0.138 0.123-0.255 0.242-0.338 0.064-0.044 0.137-0.078 0.215-0.1v-4.014c-0.754-0.227-1.614-0.035-2.17 0.555l-6.948 7.366c-0.385 0.409-0.565 0.951-0.493 1.49s0.389 1.025 0.87 1.333l3.986 2.555c0.124 0.080 0.256 0.14 0.391 0.191 0.163 0.174 0.357 0.323 0.577 0.437l1.815 0.941c0.004 0.002 0.008 0.002 0.011 0.004l-0.022 0.464-0.020 0.431c-0.003 0.059 0.029 0.102 0.056 0.128 0.051 0.050 0.129 0.079 0.211 0.079h12.414c0.083 0 0.16-0.029 0.212-0.079 0.027-0.026 0.058-0.070 0.056-0.128l-0.020-0.431zM5.103 24.849l2.477-2.625v4.154c-0.081-0.031-0.163-0.055-0.244-0.076-0.048-0.037-0.089-0.078-0.141-0.112l-2.091-1.341zM9.953 28.41c-0.029 0.049-0.098 0.067-0.15 0.040-0 0-0 0-0 0l-1.469-0.761c-0.081-0.042-0.177-0.040-0.264-0.008-0.079 0.028-0.149 0.080-0.191 0.149s-0.053 0.152-0.029 0.229c0.023 0.077 0.079 0.142 0.154 0.181l0.001 0.001 1.759 0.912c0.034 0.018 0.047 0.046 0.052 0.061s0.010 0.046-0.009 0.078c-0.019 0.032-0.049 0.043-0.066 0.048s-0.050 0.009-0.084-0.009l-1.76-0.913c-0.036-0.018-0.075-0.027-0.114-0.030-0.070-0.005-0.14 0.015-0.203 0.049-0.006 0.003-0.012 0.006-0.018 0.009-0.048 0.030-0.092 0.066-0.12 0.112-0.042 0.070-0.052 0.152-0.029 0.229 0.020 0.066 0.067 0.119 0.126 0.159 0.010 0.007 0.017 0.016 0.028 0.022l1.469 0.761c0.034 0.018 0.047 0.046 0.052 0.062s0.010 0.045-0.009 0.078c-0.019 0.032-0.049 0.044-0.066 0.048s-0.049 0.009-0.084-0.009l-1.633-0.846c-0.102-0.053-0.259-0.032-0.359 0.025-0.097 0.056-0.155 0.156-0.152 0.262 0.002 0.056 0.022 0.108 0.053 0.154 0.028 0.041 0.066 0.077 0.113 0.101l1.125 0.583c0.034 0.018 0.047 0.046 0.052 0.061s0.010 0.046-0.009 0.078c-0.029 0.049-0.098 0.068-0.15 0.040l-1.815-0.941c-0.301-0.156-0.538-0.405-0.667-0.702-0.175-0.402-0.155-0.841 0.053-1.175 0.253-0.406 0.74-0.707 1.282-0.707 0.22 0 0.448 0.051 0.674 0.162 0.006 0.003 0.013 0.005 0.020 0.009l2.395 1.256c0.034 0.018 0.047 0.047 0.052 0.062s0.010 0.046-0.009 0.077zM17.943 26.919c-0.009 0.528-0.557 0.759-0.836 0.351l-0.281-0.41c-0.075 0.243-0.188 0.471-0.336 0.679 0.001 0.032 0.005 0.064 0.005 0.097 0 1.363-1.073 2.468-2.398 2.468s-2.398-1.105-2.398-2.468c0-0.033 0.003-0.064 0.005-0.097-0.147-0.208-0.261-0.436-0.336-0.679l-0.281 0.41c-0.279 0.408-0.827 0.177-0.837-0.351-0.004-0.247-0.014-0.503-0.031-0.754-0.061-0.881 1.229-1.295 1.81-1.436 0.517-0.346 1.251-0.501 2.068-0.501s1.551 0.156 2.068 0.501c0.581 0.141 1.871 0.555 1.81 1.436-0.018 0.251-0.027 0.507-0.032 0.754zM13.114 28.749c0-0.371 0.44-0.672 0.983-0.672s0.983 0.301 0.983 0.672c0 0.371-0.44 0.672-0.983 0.672s-0.983-0.301-0.983-0.672z"/>
    </symbol>
    <symbol id="icon-instagram" viewBox="0 0 32 32">
      <path d="M16 2.881c4.275 0 4.781 0.019 6.462 0.094 1.563 0.069 2.406 0.331 2.969 0.55 0.744 0.288 1.281 0.638 1.837 1.194 0.563 0.563 0.906 1.094 1.2 1.838 0.219 0.563 0.481 1.412 0.55 2.969 0.075 1.688 0.094 2.194 0.094 6.463s-0.019 4.781-0.094 6.463c-0.069 1.563-0.331 2.406-0.55 2.969-0.288 0.744-0.637 1.281-1.194 1.837-0.563 0.563-1.094 0.906-1.837 1.2-0.563 0.219-1.413 0.481-2.969 0.55-1.688 0.075-2.194 0.094-6.463 0.094s-4.781-0.019-6.463-0.094c-1.563-0.069-2.406-0.331-2.969-0.55-0.744-0.288-1.281-0.637-1.838-1.194-0.563-0.563-0.906-1.094-1.2-1.837-0.219-0.563-0.481-1.413-0.55-2.969-0.075-1.688-0.094-2.194-0.094-6.463s0.019-4.781 0.094-6.463c0.069-1.563 0.331-2.406 0.55-2.969 0.288-0.744 0.638-1.281 1.194-1.838 0.563-0.563 1.094-0.906 1.838-1.2 0.563-0.219 1.412-0.481 2.969-0.55 1.681-0.075 2.188-0.094 6.463-0.094zM16 0c-4.344 0-4.887 0.019-6.594 0.094-1.7 0.075-2.869 0.35-3.881 0.744-1.056 0.412-1.95 0.956-2.837 1.85-0.894 0.888-1.438 1.781-1.85 2.831-0.394 1.019-0.669 2.181-0.744 3.881-0.075 1.713-0.094 2.256-0.094 6.6s0.019 4.887 0.094 6.594c0.075 1.7 0.35 2.869 0.744 3.881 0.413 1.056 0.956 1.95 1.85 2.837 0.887 0.887 1.781 1.438 2.831 1.844 1.019 0.394 2.181 0.669 3.881 0.744 1.706 0.075 2.25 0.094 6.594 0.094s4.888-0.019 6.594-0.094c1.7-0.075 2.869-0.35 3.881-0.744 1.050-0.406 1.944-0.956 2.831-1.844s1.438-1.781 1.844-2.831c0.394-1.019 0.669-2.181 0.744-3.881 0.075-1.706 0.094-2.25 0.094-6.594s-0.019-4.887-0.094-6.594c-0.075-1.7-0.35-2.869-0.744-3.881-0.394-1.063-0.938-1.956-1.831-2.844-0.887-0.887-1.781-1.438-2.831-1.844-1.019-0.394-2.181-0.669-3.881-0.744-1.712-0.081-2.256-0.1-6.6-0.1v0z"/>
      <path d="M16 7.781c-4.537 0-8.219 3.681-8.219 8.219s3.681 8.219 8.219 8.219 8.219-3.681 8.219-8.219c0-4.537-3.681-8.219-8.219-8.219zM16 21.331c-2.944 0-5.331-2.387-5.331-5.331s2.387-5.331 5.331-5.331c2.944 0 5.331 2.387 5.331 5.331s-2.387 5.331-5.331 5.331z"/>
      <path d="M26.462 7.456c0 1.060-0.859 1.919-1.919 1.919s-1.919-0.859-1.919-1.919c0-1.060 0.859-1.919 1.919-1.919s1.919 0.859 1.919 1.919z"/>
    </symbol>
    <symbol id="icon-nutrition" viewBox="0 0 32 32">
      <path d="M22.415 19.13c-0.748-0.148-1.489 0.341-1.801 1.188-0.061 0.164-0.102 0.334-0.126 0.507 0.772-0.462 1.447-1.018 2.030-1.674l-0.103-0.020z"/>
      <path d="M23.109 10.926c1.403-1.12 1.801-3.423 0.888-5.144s-2.791-2.208-4.194-1.088c-1.403 1.12-1.801 3.423-0.888 5.144s2.791 2.208 4.194 1.088z"/>
      <path d="M28.673 11.865c-1.311-1.991-3.092-2.014-4.075-1.202s-0.911 2.874-0.090 4.259c0.037 0.076 0.077 0.156 0.116 0.235 0.283-1.053 0.323-1.818 0.323-1.828 0.029-0.893 0.62-1.591 1.345-1.591 0.017 0 0.034 0 0.051 0.001 0.742 0.033 1.324 0.801 1.297 1.712v0.003l-0.001 0.015c-0.022 0.51-0.164 2.343-1.067 4.522-0.082 0.2-0.179 0.419-0.29 0.651 0.189 0.443 0.371 0.896 0.537 1.356l-1.149-0.226c-0.777 1.277-1.967 2.726-3.738 3.861l5.138 5.216c0.314 0.319 0.695 0.475 1.073 0.475 0.484 0 0.965-0.255 1.298-0.748 0.593-0.879 0.493-2.181-0.224-2.909l-1.236-1.255 0.4 0.079c0.124 0.024 0.246 0.030 0.367 0.022 0.29 0.017 0.632-0.107 1.051-0.287 1.166-0.498 2.488-1.377 2.144-4.055-0.694-3.597-1.482-5.555-3.271-8.306z"/>
      <path d="M26.332 17.84c0.97-2.342 1.033-4.28 1.039-4.402 0.022-0.73-0.442-1.343-1.037-1.37s-1.093 0.541-1.117 1.269l-0-0c-0.002 0.084-0.092 1.678-0.879 3.475-0.796 1.799-2.226 3.82-5.122 5.003-0.565 0.229-0.873 0.976-0.686 1.67 0.149 0.556 0.571 0.908 1.024 0.908 0.112 0 0.226-0.022 0.338-0.067 3.541-1.421 5.48-4.147 6.441-6.486z"/>
      <path d="M12.134 24.129c0.49 0.114 1.080 0.302 1.236 0.505 0.42 0.543 0.625 1.665 1.169 1.744 0.38 0.055 0.514 0.045 0.985-0.328 0.465-0.369 0.023-1.805-0.088-2.357-0.157-0.783 0.218-1.643 0.224-1.696 0.005-0.044 0.328-0.875 1.262-0.559 0.326 0.111 0.135-0.629-0.376-0.999-0.608-0.439-1.047-0.234-1.492 0.193-0.858-0.805-2.202-0.648-2.966-0.297-0.122 0.61-0.169 1.201-0.169 1.744-0 0.826 0.107 1.542 0.215 2.050zM14.312 22.392c0.2-0.167 0.472-0.104 0.609 0.141s0.084 0.579-0.115 0.746c-0.2 0.167-0.472 0.104-0.609-0.141s-0.085-0.579 0.115-0.746z"/>
      <path d="M11.538 20.316c-0.199 0.003-0.388-0.004-0.569-0.021-0.063-0.019-0.129-0.031-0.197-0.027-0.004 0-0.008 0.002-0.012 0.002-2.749-0.383-3.497-2.933-6.708-0.287-0.97-0.35-2.126-1.101-3.002-2.705-0.177-0.322-0.533-0.407-0.796-0.19-0.263 0.217-0.333 0.654-0.155 0.976 0.833 1.51 1.863 2.395 2.829 2.913-0.011 0.029-0.023 0.064-0.035 0.097-0.248 0.457-0.442 1.059-0.568 1.861-0.018 0.117-0.804 6.273 0.431 6.273s1.574-4.656 2.264-5.253c0.097 0.011 1.929 2.365 3.494 2.069 0.367-0.070 0.863-0.347 1.277-0.643l0.677 3.324c0.076 0.373 0.348 0.626 0.653 0.626 0.033 0 0.067-0.003 0.101-0.009 0.344-0.063 0.591-0.434 0.573-0.86l-0.176-4.139c-0.118-0.552-0.238-1.333-0.238-2.246 0-0.549 0.044-1.144 0.158-1.763z"/>
      <path d="M17.55 28.446h-0.17l-0.347-1.319h-3.889l-0.347 1.319h-0.17c-0.137 0-0.248 0.136-0.248 0.305s0.111 0.304 0.248 0.304h4.923c0.137 0 0.248-0.136 0.248-0.304s-0.111-0.305-0.248-0.305z"/>
    </symbol>
    <symbol id="icon-training" viewBox="0 0 32 32">
      <path d="M6.231 25.595l1.154-3.878-0.42-1.144c-0.891-0.149-1.626-0.597-2.098-1.193l-1.573 5.221-3.094 5.221c-0.42 0.696-0.157 1.591 0.577 1.989s1.678 0.149 2.098-0.547l3.251-5.37c0.052-0.099 0.105-0.199 0.105-0.298z"/>
      <path d="M1.090 14.764c0.483 0.253 1.126 0.051 1.394-0.456l2.413-4.658 0.429-0.304 0.215-1.266c0.107-0.658 0.429-1.266 0.858-1.772l-2.896 1.772c-0.161 0.101-0.268 0.253-0.375 0.405l-2.521 4.911c-0.268 0.506-0.054 1.114 0.483 1.367z"/>
      <path d="M10.338 5.408c1.631 0 2.954-1.211 2.954-2.704s-1.322-2.704-2.954-2.704c-1.631 0-2.954 1.211-2.954 2.704s1.322 2.704 2.954 2.704z"/>
      <path d="M28.969 25.591c0 0 0.052 0.050 0.052 0.1 0.418-0.249 0.575-0.797 0.575-0.797 1.569 0.448 1.883-0.946 1.883-0.946 0.209-0.398-0.837-0.797-0.837-0.797-0.052-0.996-1.255-1.295-1.255-1.295-0.575-0.498-0.418 0-0.418 0-0.575-0.050-0.942 0.149-0.942 0.149-0.942-0.847-1.517 0.448-1.517 0.448-0.157 0-0.262 0.050-0.418 0.050 0.942 1.195 1.935 2.241 2.877 3.088z"/>
      <path d="M30.429 28.782c-0.272-0.252-2.227-1.362-2.227-1.362 0.435-0.202 0.489-1.059 0.489-1.362-1.032-0.908-2.119-2.068-3.205-3.379-0.543 0.101-4.129 1.513-7.606 0.050-1.304-0.555-2.445 0.252-2.445 0.252-0.978 1.059-0.543 2.774-0.543 2.774l1.358-1.362c0.706-0.504 0.978-0.403 1.141-0.151 0.109 0.202 0.054 0.454-0.109 0.656-1.304 1.261-0.869 2.572-0.869 2.572l-1.847 1.513c-0.706 0.706 0.109 1.261 0.109 1.261 0.163-0.555 1.467-1.412 1.467-1.412-0.054 0.656 0.272 0.807 0.272 0.807 0.924-0.252 0.706-1.11 0.706-1.11 1.467-0.050 1.63-0.656 1.63-0.656 1.467 0.252 2.173-0.656 2.173-0.656 0.38 0.656 3.694 1.362 3.694 1.362 0.217 0.101 1.467 2.421 1.467 2.421 0.272 0.050 0.543 0.403 0.543 0.403 0.598 0.353 1.847-0.050 1.847-0.050-0.109-0.454-0.761-0.454-0.761-0.454-1.467 0-1.25-2.27-1.25-2.27 0.054-0.303 1.195 0.252 1.195 0.252l2.499 0.857c1.25 0.605 1.793-0.101 1.793-0.101 0.38-0.555-1.521-0.857-1.521-0.857z"/>
      <path d="M18.215 11.014c1.241 2.511 3.885 7.484 7.283 11.521 0.162-0.049 0.378-0.049 0.593-0.098-0.054-0.049-0.108-0.098-0.162-0.197-3.399-3.988-6.043-8.961-7.23-11.423-0.216 0.148-0.432 0.197-0.486 0.197z"/>
      <path d="M18.48 10.434c0.543-0.2 0.869-0.748 0.652-1.247s-0.814-0.798-1.357-0.599l-2.932 0.948c-3.421-2.944-3.584-3.443-4.941-3.642-1.738-0.249-3.367 0.898-3.638 2.495l-1.303 8.382c-0.271 1.597 0.977 3.093 2.715 3.343 0.054 0 0.109 0 0.163 0l1.412 3.892-2.878 3.892c-0.489 0.649-0.326 1.597 0.434 2.046 0.706 0.449 1.738 0.299 2.226-0.399l3.366-4.49c0.271-0.399 0.38-0.848 0.217-1.297l-1.792-4.939c0.271-0.349 0.489-0.798 0.543-1.247l1.195-7.434 1.357 1.197c0.271 0.249 0.706 0.349 1.086 0.2l3.475-1.098z"/>
    </symbol>
    <symbol id="icon-bone" viewBox="0 0 73 32">
      <path d="M72.672 13.749c0.834-1.89 0.379-4.677 0-6.752-0.291-1.746-1.046-3.279-2.132-4.513l0.009 0.010c-1.097-1.28-2.718-1.886-4.247-2.249-1.211-0.315-3.038-0.336-4.247 0-1.209 0.334-1.166 1.335-2.126 2.249-2.382 2.171-5.454 2.327-8.491 2.251h-29.733c-3.040 0.075-6.11-0.078-8.494-2.251-0.955-0.914-0.914-1.915-2.123-2.249-1.209-0.336-3.033-0.315-4.247 0-1.531 0.366-3.152 0.969-4.247 2.249-1.097 1.28-1.829 2.738-2.126 4.503-0.377 2.075-0.832 4.862 0 6.752 0.304 0.681 2.126 1.486 2.126 2.251s-1.822 1.57-2.126 2.251c-0.83 1.893-0.377 4.677 0 6.752 0.297 1.767 1.029 3.221 2.126 4.503 1.097 1.28 2.718 1.881 4.247 2.249 1.211 0.315 3.038 0.336 4.247 0 1.209-0.334 1.166-1.335 2.126-2.249 2.379-2.176 5.451-2.322 8.491-2.251h29.733c3.040-0.071 6.112 0.075 8.494 2.251 0.955 0.914 0.914 1.915 2.123 2.249 1.209 0.336 3.033 0.315 4.247 0 1.531-0.368 3.152-0.967 4.247-2.249 1.097-1.282 1.829-2.736 2.126-4.503 0.377-2.075 0.83-4.859 0-6.752-0.304-0.681-2.126-1.486-2.126-2.251s1.822-1.57 2.126-2.251z"/>
    </symbol>
    <symbol id="icon-close" viewBox="0 0 24 24">
      <path stroke-linejoin="miter" stroke-linecap="round" stroke-miterlimit="4" stroke-width="2" d="M9 6l6 6 6-6M9 18l6-6 6 6"/>
    </symbol>
    <symbol id="icon-form-email" viewBox="0 0 32 32">
      <path d="M16 29.333c-1.822 0-3.544-0.35-5.167-1.050-1.65-0.713-3.060-1.68-4.249-2.867l0 0c-1.187-1.189-2.154-2.599-2.833-4.163l-0.034-0.087c-0.664-1.503-1.050-3.255-1.050-5.097 0-0.024 0-0.049 0-0.073l-0 0.004c0-1.845 0.35-3.572 1.050-5.183 0.716-1.644 1.682-3.048 2.867-4.233l-0 0c1.189-1.187 2.599-2.154 4.163-2.834l0.087-0.034c1.622-0.7 3.344-1.050 5.166-1.050 1.844 0 3.572 0.35 5.183 1.050 1.644 0.717 3.047 1.683 4.233 2.868l-0-0c1.185 1.185 2.151 2.589 2.833 4.146l0.034 0.087c0.7 1.611 1.050 3.338 1.050 5.183v1.933c0 1.311-0.45 2.428-1.349 3.35s-2.006 1.384-3.317 1.384c-0.8 0-1.545-0.178-2.234-0.534-0.678-0.347-1.245-0.818-1.692-1.389l-0.008-0.011c-1.199 1.195-2.853 1.934-4.68 1.934-0.019 0-0.037-0-0.056-0l0.003 0c-1.845 0-3.416-0.65-4.716-1.951-1.3-1.3-1.95-2.872-1.95-4.716s0.65-3.417 1.95-4.717 2.871-1.95 4.716-1.95c1.844 0 3.417 0.65 4.717 1.95s1.95 2.873 1.95 4.717v1.933c0 0.645 0.2 1.15 0.6 1.516 0.4 0.367 0.866 0.551 1.4 0.551s1-0.184 1.4-0.55c0.4-0.367 0.6-0.872 0.6-1.517v-1.933c0-2.911-1.050-5.417-3.151-7.517s-4.605-3.15-7.516-3.15-5.417 1.050-7.517 3.15c-2.1 2.1-3.15 4.606-3.15 7.517s1.050 5.416 3.15 7.516c2.1 2.1 4.606 3.15 7.517 3.15h6.667v2.667h-6.667zM16 20c1.111 0 2.055-0.389 2.833-1.167 0.778-0.777 1.167-1.722 1.167-2.833s-0.389-2.056-1.167-2.833c-0.777-0.778-1.722-1.167-2.833-1.167s-2.056 0.389-2.833 1.167c-0.778 0.777-1.167 1.722-1.167 2.833s0.389 2.055 1.167 2.833c0.777 0.778 1.722 1.167 2.833 1.167z"/>
    </symbol>
    <symbol id="icon-form-owner" viewBox="0 0 32 32">
      <path d="M11.384 9.714c0-1.125 0.446-2.204 1.24-3 0.766-0.767 1.825-1.242 2.995-1.242s2.229 0.475 2.995 1.242l0 0c0.767 0.768 1.241 1.829 1.241 3s-0.474 2.232-1.241 3l0-0c-0.766 0.767-1.825 1.242-2.995 1.242s-2.229-0.475-2.995-1.242l-0-0c-0.766-0.768-1.24-1.828-1.24-2.999 0-0 0-0.001 0-0.001v0zM15.619 3.048c-1.838 0-3.502 0.746-4.706 1.952l-0 0c-1.205 1.207-1.95 2.873-1.95 4.714s0.745 3.507 1.95 4.714l-0-0c1.204 1.206 2.868 1.951 4.706 1.951s3.502-0.746 4.706-1.951l0-0c1.205-1.207 1.95-2.873 1.95-4.714s-0.745-3.507-1.95-4.714l0 0c-1.204-1.206-2.868-1.952-4.706-1.952h-0zM5.333 22.44c0-0.964 0.383-1.889 1.064-2.57 0.656-0.658 1.564-1.066 2.567-1.066h13.31c0.963 0 1.887 0.383 2.567 1.065 0.657 0.659 1.064 1.568 1.064 2.572 0 0 0 0 0 0v-0 0.273c-0.003 0.114-0.010 0.226-0.024 0.339-0.025 0.21-0.070 0.494-0.158 0.831-0.25 0.937-0.666 1.755-1.22 2.46l0.011-0.015c-1.415 1.82-4.079 3.384-8.895 3.384s-7.478-1.563-8.895-3.384c-0.543-0.69-0.96-1.508-1.199-2.398l-0.011-0.047c-0.086-0.316-0.149-0.688-0.176-1.069l-0.001-0.019c-0.001-0.023-0.002-0.051-0.002-0.080l-0-0.002v-0.027l-0.002-0.010v-0.236zM7.753 22.656v0.015c0.017 0.204 0.052 0.406 0.103 0.604 0.11 0.421 0.33 0.991 0.776 1.564 0.853 1.096 2.728 2.45 6.987 2.45s6.135-1.354 6.987-2.448c0.362-0.464 0.625-0.997 0.775-1.566 0.052-0.198 0.086-0.4 0.104-0.604v-0.229c0 0 0 0 0 0 0-0.669-0.541-1.211-1.21-1.213h-13.31c0 0 0 0 0 0-0.668 0-1.21 0.542-1.21 1.21 0 0.001 0 0.002 0 0.003v-0 0.215z"/>
    </symbol>
    <symbol id="icon-form-pet" viewBox="0 0 32 32">
      <path d="M6.467 29.333v-12.8l-0.367-0.366c-0.24-0.241-0.432-0.529-0.561-0.85l-0.006-0.017c-0.127-0.305-0.2-0.66-0.2-1.031 0-0.001 0-0.001 0-0.002v0c-0-0.003-0-0.007-0-0.011 0-0.724 0.293-1.38 0.767-1.856l-0 0 4.367-4.4h5.333l5.333-5.333 2.734 2.733c0.851 0.845 1.547 1.845 2.041 2.954l0.025 0.062c0.464 1.042 0.734 2.257 0.734 3.535 0 0.017-0 0.034-0 0.051v-0.003c0 0.014 0 0.032 0 0.049 0 1.278-0.27 2.494-0.757 3.592l0.022-0.057c-0.519 1.171-1.215 2.171-2.065 3.015l-0.001 0.001-2.734 2.733v8h-14.666zM9.133 26.667h9.334v-6.434l3.5-3.5c0.614-0.608 1.119-1.326 1.482-2.121l0.018-0.045c0.355-0.8 0.533-1.656 0.533-2.567 0-0.889-0.183-1.733-0.55-2.533-0.389-0.836-0.886-1.552-1.486-2.169l0.002 0.002-0.834-0.867-4.233 4.234h-5.333l-0.767 0.766 2.233 2.234c0.603 0.6 1.092 1.313 1.434 2.105l0.017 0.044c0.326 0.747 0.516 1.617 0.516 2.532 0 0.006 0 0.013-0 0.019v-0.001c0 0.89-0.167 1.74-0.5 2.551-0.357 0.85-0.853 1.576-1.466 2.182l-0.001 0.001-3.9-3.9v7.467z"/>
    </symbol>
    <symbol id="icon-form-phone" viewBox="0 0 32 32">
      <path d="M27.833 29.333c-3.466 0-6.727-0.655-9.782-1.966-3.056-1.312-5.723-3.106-8-5.383-2.279-2.278-4.079-4.945-5.4-8-1.323-3.056-1.984-6.328-1.984-9.817-0.023-0.4 0.11-0.75 0.4-1.051 0.289-0.3 0.644-0.45 1.066-0.45h5.2c0.4 0 0.745 0.15 1.034 0.45s0.433 0.662 0.433 1.084c0 0.978 0.067 1.9 0.2 2.767s0.345 1.689 0.633 2.466c0.112 0.245 0.134 0.495 0.067 0.75s-0.2 0.495-0.4 0.717l-3.333 3.333c0.955 1.956 2.31 3.811 4.066 5.567 1.756 1.755 3.645 3.155 5.667 4.2l3.333-3.333c0.2-0.2 0.434-0.334 0.7-0.4 0.267-0.067 0.534-0.045 0.8 0.066 0.708 0.24 1.567 0.454 2.448 0.602l0.102 0.014c0.878 0.145 1.784 0.218 2.717 0.218 0.422 0 0.784 0.155 1.084 0.466s0.45 0.69 0.45 1.134v5.1c0 0.4-0.145 0.744-0.434 1.033-0.263 0.268-0.629 0.433-1.034 0.433-0.012 0-0.023-0-0.035-0l0.002 0zM20.167 25.333c1 0.378 2.044 0.678 3.133 0.9 1.089 0.223 2.211 0.367 3.367 0.434v-2.867c-0.81-0.054-1.537-0.137-2.254-0.251l0.138 0.018c-0.827-0.129-1.553-0.303-2.255-0.529l0.104 0.029-2.233 2.266zM26.667 16c0-2.978-1.034-5.5-3.1-7.567-2.067-2.066-4.59-3.1-7.567-3.1v-2.666c1.845 0 3.578 0.35 5.2 1.049 1.622 0.7 3.033 1.65 4.233 2.85 1.18 1.185 2.141 2.59 2.816 4.147l0.034 0.087c0.7 1.622 1.050 3.355 1.050 5.2h-2.666zM21.333 16c0-1.467-0.522-2.722-1.566-3.767s-2.3-1.566-3.767-1.566v-2.667c2.222 0 4.111 0.778 5.667 2.333 1.555 1.557 2.333 3.445 2.333 5.667h-2.667zM6.667 11.767l2.2-2.234c-0.153-0.523-0.31-1.208-0.432-1.906l-0.019-0.127c-0.111-0.61-0.2-1.354-0.247-2.11l-0.003-0.057h-2.8c0.045 1.067 0.178 2.134 0.4 3.2s0.523 2.145 0.9 3.234z"/>
    </symbol>
    <symbol id="icon-slider-arrow" viewBox="0 0 36 32">
      <path d="M35.414 14.586c0.362 0.362 0.586 0.862 0.586 1.414s-0.224 1.052-0.586 1.414l-12.728 12.728c-0.359 0.347-0.849 0.561-1.389 0.561-1.105 0-2-0.895-2-2 0-0.54 0.214-1.030 0.562-1.39l-0.001 0.001 11.314-11.314-11.314-11.314c-0.335-0.357-0.541-0.838-0.541-1.368 0-1.105 0.895-2 2-2 0.53 0 1.012 0.206 1.37 0.543l-0.001-0.001 12.728 12.728zM34 18h-33.524v-4h33.524v4z"/>
    </symbol>
    <symbol id="icon-back" viewBox="0 0 88 32">
      <path fill="#fffaf3" style="fill: var(--color1, #fffaf3)" d="M20.378 1.489c-13.971-1.931-27.188 0.374-32.048 1.781l-1.412 26.899c10.21-1.643 38.787-2.749 72.016 0.676 34.384 3.544 25.542-2.027 45.187-3.869 1.115-4.624 12.043-17.666-2.886-23.706s-7.401-1.884-24.62-1.781c-12.921 0.804-42.266 1.931-56.237 0z"/>
    </symbol>
    <symbol id="icon-burger" viewBox="0 0 32 32">
      <path d="M29.333 24.007c0 0.733-0.595 1.327-1.327 1.327h-10.68c-0.733 0-1.327-0.594-1.327-1.327s0.594-1.327 1.327-1.327h10.68c0.733 0 1.327 0.593 1.327 1.327zM29.333 16c0 0.733-0.595 1.327-1.327 1.327h-24.013c-0.733 0-1.327-0.594-1.327-1.327s0.594-1.327 1.327-1.327h24.013c0.733 0 1.327 0.595 1.327 1.327zM28.007 9.32c0.733 0 1.327-0.594 1.327-1.327s-0.594-1.327-1.327-1.327h-16.013c-0.733 0-1.327 0.594-1.327 1.327s0.594 1.327 1.327 1.327h16.013z"/>
    </symbol>
    <symbol id="icon-service-arrow" viewBox="0 0 41 32">
      <path fill="#fa0" style="fill: var(--color1, #fa0)" d="M8.36 25.148c1.281-8.416 8.117-15.203 15.24-15.192 0.042 0.215 0.234 0.414 0.167 0.622-1.148 3.54 0.459 6.317 2.941 8.752 1.91 1.922 4.053 3.488 6.689 4.287 0.755 0.205 1.397 0.494 2.216 0.544 2.999 0.236 4.713-1.486 4.563-4.415-0.099-1.97-1.127-3.534-2.35-5.042-2.086-2.623-4.811-4.636-8.016-6-0.642-0.252-1.282-0.576-2.191-0.95 3.11-3.367 7.344-4.081 11.372-5.428-0.71-0.043-1.321-0.187-2.037-0.124-3.706 0.57-7.293 1.798-10.075 4.282-0.809 0.694-1.521 1.131-2.722 1.058-4.643-0.231-8.469 1.444-11.729 4.59-2.445 2.346-4.328 5.122-5.614 8.229-0.321 0.777-0.624 1.545-1.192 2.784-1.495-2.427-2.799-4.48-4.096-6.577-0.167 0.043-0.253 0.135-0.42 0.178-0.080 0.42-0.432 1.031-0.291 1.411 0.868 2.474 1.585 4.27 2.355 6.039l-0.234-0.603c0.722 1.637 1.64 3.202 2.362 4.839 0.725 1.584 1.496 1.978 2.611 0.772 1.934-2.058 3.722-4.172 5.502-6.399 0.238-0.304 0.113-0.944 0.087-1.423-0.552 0.072-1.307 0.010-1.654 0.307-1.218 1.094-2.198 2.159-3.483 3.461zM25.852 9.889c5.295 1.226 9.343 3.912 11.736 8.677 0.484 1.038 0.845 2.317-0.186 3.050-0.687 0.489-1.967 0.598-2.889 0.436-3.516-0.746-6.11-2.874-8.244-5.606-1.47-1.948-1.944-3.995-0.417-6.556z"/>
    </symbol>
    <symbol id="icon-video" viewBox="0 0 42 32">
      <path fill="#839aa9" style="fill: var(--color2, #839aa9)" d="M0.098 13.567s-1.927-7.847 11.323-12.617c13.25-4.77 38.908 9.434 27.706 19.715s-17.346 14.203-27.706 9.116c-10.36-5.087-11.323-16.214-11.323-16.214z"/>
    </symbol>
    <symbol id="icon-video-button" viewBox="0 0 32 32">
      <path fill="#fff" style="fill: var(--color3, #fff)" d="M22.809 15.271c-0.019 0.197-0.139 0.412-0.414 0.631l-8.11 6.435c-0.577 0.458-1.947 0.565-1.947-0.513v-11.905c0-0.975 1.47-1.215 2.059-0.818l8.109 5.472c0.309 0.209 0.377 0.459 0.303 0.7zM32 18.654c-0.857 20.541-35.471 16.285-31.715-5.338 1.576-9.073 9.11-13.845 17.389-13.269 9.317 0.647 14.157 9.123 14.327 18.471 0 0.023-0.015 0.043-0.018 0.065 0.003 0.026 0.020 0.042 0.019 0.071zM30.263 18.919c-0.14-6.617-2.487-13.763-8.541-16.607-8.025-3.769-17.479 0.676-19.518 9.838-1.823 8.194 2.232 15.459 9.653 18.087 7.912 2.802 17.974-1.607 18.407-11.317z"/>
    </symbol>
    <symbol id="icon-star-grade" viewBox="0 0 34 32">
      <path d="M17.067 0l3.831 11.793h12.401l-10.033 7.287 3.831 11.793-10.031-7.287-10.031 7.287 3.831-11.793-10.031-7.287h12.399l3.831-11.793z"/>
    </symbol>
    <symbol id="icon-hero-section-paw" viewBox="0 0 27 32">
      <path fill="#fff" style="fill: var(--color1, #fff)" opacity="0.96" d="M10.911 15.636c-2.17-1.542-4.147-0.072-7.466 0.161-4.818 0.383-6.098 2.956-4.746 4.712s4.305 1.006 6.117 2.551c1.881 1.406 1.824 4.385 3.91 5.2 2.052 0.885 4.38-0.934 3.66-5.57-0.516-3.079 0.519-5.338-1.475-7.054zM6.754 9.658c-0.242 2.513-1.677 4.553-3.192 4.561-1.583-0.024-2.663-2.075-2.42-4.588s1.677-4.553 3.192-4.561c1.583 0.024 2.663 2.075 2.42 4.588zM17.084 17.897c-2.423 0.694-4.008 2.487-3.626 3.983s2.625 2.207 5.049 1.512 4.008-2.487 3.626-3.983c-0.452-1.529-2.695-2.24-5.048-1.512zM14.432 9.826c-1.258 2.354-3.536 3.6-4.982 2.826s-1.569-3.334-0.311-5.689c1.258-2.354 3.536-3.601 4.982-2.827s1.569 3.335 0.311 5.689zM15.847 10.559c-1.921 1.654-2.543 3.923-1.509 5.073 1.102 1.183 3.48 0.82 5.368-0.767 1.921-1.654 2.543-3.923 1.509-5.073-1-1.217-3.447-0.887-5.368 0.767z"/>
    </symbol>
  </defs>
</svg>
