<svg xmlns="http://www.w3.org/2000/svg" fill="none" viewBox="0 0 201 156">
  <g clip-path="url(#a)">
    <path fill="#FA0" d="M40.753 122.596C47 81.566 80.324 48.483 115.046 48.535c.203 1.048 1.141 2.02.812 3.034-5.596 17.258 2.239 30.796 14.336 42.665 9.31 9.369 19.758 17.006 32.609 20.897 3.679 1.001 6.81 2.406 10.802 2.65 14.621 1.152 22.975-7.244 22.245-21.524-.481-9.606-5.493-17.227-11.454-24.58-10.171-12.786-23.455-22.603-39.076-29.252-3.13-1.226-6.251-2.808-10.68-4.632 15.16-16.415 35.804-19.896 55.437-26.46-3.459-.212-6.438-.912-9.929-.607-18.067 2.778-35.555 8.764-49.117 20.877-3.946 3.382-7.417 5.516-13.272 5.158-22.636-1.124-41.285 7.04-57.18 22.374-11.919 11.437-21.101 24.97-27.37 40.116-1.567 3.786-3.04 7.532-5.813 13.574-7.29-11.834-13.646-21.842-19.967-32.064-.814.209-1.232.66-2.046.87-.392 2.046-2.105 5.024-1.417 6.878a455.437 455.437 0 0 0 10.34 26.501c3.52 7.98 7.996 15.608 11.515 23.588 3.535 7.722 7.293 9.642 12.727 3.762 9.428-10.035 18.146-20.336 26.823-31.194 1.16-1.482.549-4.602.425-6.939-2.693.353-6.374.048-8.065 1.497-5.936 5.332-10.714 10.525-16.978 16.872Zm85.277-74.385c25.812 5.978 45.546 19.07 57.215 42.3 2.362 5.062 4.118 11.294-.909 14.869-3.351 2.384-9.591 2.917-14.083 2.124-17.141-3.636-29.785-14.011-40.19-27.33-7.166-9.497-9.475-19.476-2.033-31.963Z"/>
  </g>
  <defs>
    <clipPath id="a">
      <path fill="#fff" d="M201 12 9.358.287.573 144.02l191.643 11.713z"/>
    </clipPath>
  </defs>
</svg>
