<svg xmlns="http://www.w3.org/2000/svg" fill="none" viewBox="0 0 48 48">
  <path fill="#fff" d="M34.214 22.906c-.029.295-.208.618-.621.946l-12.165 9.652c-.865.687-2.92.847-2.92-.77V14.876c0-1.462 2.205-1.822 3.088-1.227l12.164 8.208c.464.313.566.688.454 1.05ZM48 27.981C46.715 58.793-5.207 52.409.427 19.974 2.791 6.364 14.092-.793 26.51.07 40.486 1.04 47.746 13.754 48 27.777c0 .035-.023.064-.027.098.005.039.03.063.028.106Zm-2.606.398c-.21-9.925-3.73-20.645-12.812-24.911C20.545-2.186 6.364 4.482 3.305 18.225.57 30.516 6.653 41.414 17.785 45.355c11.868 4.203 26.961-2.41 27.61-16.976Z"/>
</svg>
